<svg xmlns="http://www.w3.org/2000/svg" width="26" height="26" viewBox="0 0 26 26" fill="none">
<path d="M10.2116 2.21143C11.6826 0.596189 14.2241 0.596189 15.6952 2.21143C16.4387 3.02788 17.5073 3.47048 18.6103 3.41891C20.7926 3.31691 22.5898 5.11415 22.4878 7.29646C22.4362 8.39942 22.8789 9.46799 23.6953 10.2116C25.3105 11.6826 25.3105 14.2241 23.6953 15.6952C22.8789 16.4387 22.4362 17.5073 22.4878 18.6103C22.5898 20.7926 20.7926 22.5898 18.6103 22.4878C17.5073 22.4362 16.4387 22.8789 15.6952 23.6953C14.2241 25.3105 11.6826 25.3105 10.2116 23.6953C9.46799 22.8789 8.39942 22.4362 7.29646 22.4878C5.11415 22.5898 3.31691 20.7926 3.41891 18.6103C3.47048 17.5073 3.02788 16.4387 2.21143 15.6952C0.596189 14.2241 0.596189 11.6826 2.21143 10.2116C3.02788 9.46799 3.47048 8.39942 3.41891 7.29646C3.31691 5.11415 5.11415 3.31691 7.29646 3.41891C8.39942 3.47048 9.46799 3.02788 10.2116 2.21143Z" stroke="#9C9BB3" stroke-width="1.77778"/>
<path d="M9.20312 12.9536L11.7038 15.454L16.7047 10.4531" stroke="#9C9BB3" stroke-width="2.66667" stroke-linecap="round" stroke-linejoin="round"/>
</svg>