<svg width="24" height="24" viewBox="0 0 24 24" fill="none" xmlns="http://www.w3.org/2000/svg">
<g id="WOM-basic/copy">
<path id="Copy" fill-rule="evenodd" clip-rule="evenodd" d="M6.14838 5.37146C5.94229 5.37146 5.74463 5.45334 5.59891 5.59908C5.45318 5.74483 5.37131 5.9425 5.37131 6.14862V12.7316C5.37131 12.9377 5.45318 13.1354 5.59891 13.2812C5.74464 13.4269 5.94229 13.5088 6.14838 13.5088H6.87974C7.25842 13.5088 7.5654 13.8158 7.5654 14.1945C7.5654 14.5732 7.25842 14.8802 6.87974 14.8802H6.14838C5.57859 14.8802 5.03214 14.6539 4.62925 14.2509C4.22635 13.848 4 13.3015 4 12.7316V6.14862C4 5.57877 4.22635 5.03226 4.62925 4.62932C5.03215 4.22637 5.57859 4 6.14838 4H12.7306C13.3004 4 13.8469 4.22637 14.2498 4.62932C14.6527 5.03226 14.879 5.57877 14.879 6.14862V6.88006C14.879 7.25878 14.5721 7.56579 14.1934 7.56579C13.8147 7.56579 13.5077 7.25878 13.5077 6.88006V6.14862C13.5077 5.9425 13.4259 5.74483 13.2801 5.59908C13.1344 5.45334 12.9367 5.37146 12.7306 5.37146H6.14838ZM11.2694 10.4912C10.8402 10.4912 10.4923 10.8392 10.4923 11.2684V17.8514C10.4923 18.2806 10.8402 18.6285 11.2694 18.6285H17.8516C18.2808 18.6285 18.6287 18.2806 18.6287 17.8514V11.2684C18.6287 10.8392 18.2808 10.4912 17.8516 10.4912H11.2694ZM9.12097 11.2684C9.12097 10.0817 10.0828 9.11976 11.2694 9.11976H17.8516C19.0381 9.11976 20 10.0817 20 11.2684V17.8514C20 19.038 19.0381 20 17.8516 20H11.2694C10.0828 20 9.12097 19.038 9.12097 17.8514V11.2684Z" fill="#737289"/>
</g>
</svg>
