<svg width="24" height="24" viewBox="0 0 24 24" fill="none" xmlns="http://www.w3.org/2000/svg">
<g id="WOM-basic/eye">
<path id="eye" fill-rule="evenodd" clip-rule="evenodd" d="M16.4999 7.43802C14.0147 4.91852 9.9853 4.91851 7.50005 7.43803L5.34009 9.62778C4.64601 10.3314 4.18092 10.8053 3.8799 11.2052C3.59232 11.5874 3.52733 11.8098 3.52733 12C3.52733 12.1902 3.59232 12.4127 3.8799 12.7948C4.18092 13.1948 4.64601 13.6686 5.34008 14.3722L7.50005 16.562C9.9853 19.0815 14.0147 19.0815 16.4999 16.562L18.6599 14.3722C18.6599 14.3722 18.6599 14.3722 18.6599 14.3722C19.354 13.6686 19.8191 13.1948 20.1201 12.7948C20.4077 12.4127 20.4727 12.1902 20.4727 12C20.4727 11.8098 20.4077 11.5874 20.1201 11.2052C19.8191 10.8053 19.354 10.3314 18.6599 9.62779C18.6599 9.62778 18.6599 9.6278 18.6599 9.62779L16.4999 7.43802ZM17.5798 6.34314C14.4982 3.21894 9.50176 3.21896 6.42007 6.34315L4.26011 8.5329L4.22285 8.57067C3.57585 9.22655 3.03633 9.77346 2.66564 10.266C2.27441 10.7859 2 11.3351 2 12C2 12.6649 2.27441 13.2142 2.66564 13.734C3.03635 14.2266 3.57589 14.7735 4.22292 15.4294L4.26011 15.4671L6.42007 17.6568C6.42007 17.6568 6.42007 17.6568 6.42007 17.6568C9.50176 20.781 14.4982 20.7811 17.5798 17.6568C17.5798 17.6569 17.5798 17.6568 17.5798 17.6568L19.7774 15.4291C20.4242 14.7733 20.9637 14.2265 21.3343 13.734C21.7256 13.2142 22 12.6649 22 12C22 11.3351 21.7256 10.7859 21.3343 10.266C20.9637 9.77353 20.4243 9.2267 19.7774 8.57093L19.7399 8.53291L17.5798 6.34314C17.5798 6.34315 17.5798 6.34313 17.5798 6.34314ZM12.1023 9.67743C10.837 9.67743 9.81133 10.7172 9.81133 12C9.81133 13.2828 10.837 14.3226 12.1023 14.3226C13.3676 14.3226 14.3933 13.2828 14.3933 12C14.3933 10.7172 13.3676 9.67743 12.1023 9.67743ZM8.284 12C8.284 9.86209 9.99347 8.12904 12.1023 8.12904C14.2112 8.12904 15.9206 9.86209 15.9206 12C15.9206 14.1379 14.2112 15.871 12.1023 15.871C9.99347 15.871 8.284 14.1379 8.284 12Z" fill="#737289"/>
</g>
</svg>
