<svg width="32" height="32" viewBox="0 0 32 32" fill="none" xmlns="http://www.w3.org/2000/svg">
<g id="WOM-medium/globe">
<path id="Union" fill-rule="evenodd" clip-rule="evenodd" d="M13.2799 4.3567C9.85019 5.22619 7.02683 7.61671 5.56988 10.7683H10.6624C10.9326 9.29504 11.3227 7.95828 11.8088 6.8228C12.2212 5.85967 12.7132 5.01693 13.2799 4.3567ZM10.435 12.2683H4.999C4.67449 13.3392 4.5 14.4754 4.5 15.6523C4.5 16.8293 4.6745 17.9655 4.99903 19.0365H10.435C10.3041 17.9566 10.2347 16.8214 10.2347 15.6524C10.2347 14.4833 10.3041 13.3481 10.435 12.2683ZM11.9466 19.0365C11.8093 17.9695 11.7347 16.8336 11.7347 15.6524C11.7347 14.4712 11.8093 13.3352 11.9466 12.2683H20.3581C20.4954 13.3352 20.57 14.4712 20.57 15.6524C20.57 16.8336 20.4954 17.9695 20.3581 19.0365H11.9466ZM10.6624 20.5365H5.56992C7.02687 23.688 9.85018 26.0784 13.2799 26.9479C12.7131 26.2877 12.2212 25.445 11.8088 24.4819C11.3227 23.3464 10.9326 22.0097 10.6624 20.5365ZM19.0249 26.9479C22.4545 26.0784 25.2778 23.6879 26.7347 20.5365H21.6423C21.3721 22.0097 20.9821 23.3464 20.4959 24.4819C20.0835 25.445 19.5916 26.2877 19.0249 26.9479ZM20.1155 20.5365C19.867 21.8015 19.526 22.9362 19.117 23.8915C18.6732 24.928 18.164 25.7189 17.6368 26.2397C17.1127 26.7574 16.612 26.9718 16.1524 26.9718C15.6927 26.9718 15.192 26.7574 14.668 26.2397C14.1408 25.7189 13.6316 24.928 13.1878 23.8915C12.7787 22.9362 12.4378 21.8015 12.1892 20.5365H20.1155ZM21.8697 19.0365H27.3056C27.6302 17.9655 27.8047 16.8293 27.8047 15.6523C27.8047 14.4754 27.6302 13.3392 27.3057 12.2683H21.8698C22.0006 13.3481 22.07 14.4833 22.07 15.6524C22.07 16.8214 22.0006 17.9566 21.8697 19.0365ZM21.6423 10.7683H26.7348C25.2778 7.61674 22.4545 5.22623 19.0248 4.35672C19.5916 5.01695 20.0835 5.85968 20.4959 6.8228C20.9821 7.95828 21.3721 9.29504 21.6423 10.7683ZM20.1155 10.7683H12.1892C12.4378 9.50324 12.7787 8.36857 13.1878 7.4132C13.6316 6.37667 14.1408 5.58581 14.668 5.06499C15.192 4.54734 15.6927 4.33296 16.1524 4.33296C16.612 4.33296 17.1127 4.54734 17.6368 5.06499C18.164 5.58581 18.6732 6.37667 19.117 7.4132C19.526 8.36857 19.867 9.50324 20.1155 10.7683ZM16.1523 2.5C8.8885 2.5 3 8.3885 3 15.6523C3 22.9162 8.8885 28.8047 16.1523 28.8047C23.4162 28.8047 29.3047 22.9162 29.3047 15.6523C29.3047 8.3885 23.4162 2.5 16.1523 2.5Z" fill="#737289"/>
</g>
</svg>
