<svg width="25" height="24" viewBox="0 0 25 24" fill="none" xmlns="http://www.w3.org/2000/svg">
<g id="WOM-mini/info-circle">
<path id="info-circle-mini" fill-rule="evenodd" clip-rule="evenodd" d="M12.5 17.0769C15.3039 17.0769 17.5769 14.8039 17.5769 12C17.5769 9.19607 15.3039 6.92308 12.5 6.92308C9.69607 6.92308 7.42308 9.19607 7.42308 12C7.42308 14.8039 9.69607 17.0769 12.5 17.0769ZM18.5 12C18.5 15.3137 15.8137 18 12.5 18C9.18627 18 6.5 15.3137 6.5 12C6.5 8.68627 9.18627 6 12.5 6C15.8137 6 18.5 8.68627 18.5 12ZM12.5 14.9231C12.2451 14.9231 12.0385 14.7164 12.0385 14.4615V11.3846C12.0385 11.1297 12.2451 10.9231 12.5 10.9231C12.7549 10.9231 12.9615 11.1297 12.9615 11.3846V14.4615C12.9615 14.7164 12.7549 14.9231 12.5 14.9231ZM12.5 10.0069C12.2451 10.0069 12.0385 9.80025 12.0385 9.54535V9.53846C12.0385 9.28356 12.2451 9.07692 12.5 9.07692C12.7549 9.07692 12.9615 9.28356 12.9615 9.53846V9.54535C12.9615 9.80025 12.7549 10.0069 12.5 10.0069Z" fill="#9C9BB3"/>
</g>
</svg>
