<svg width="32" height="32" viewBox="0 0 32 32" fill="none" xmlns="http://www.w3.org/2000/svg">
<g id="WOM-medium/list">
<path id="Vector" d="M18.6693 2.66602H8.0026C7.29536 2.66602 6.61708 2.94697 6.11699 3.44706C5.61689 3.94716 5.33594 4.62544 5.33594 5.33268V26.666C5.33594 27.3733 5.61689 28.0515 6.11699 28.5516C6.61708 29.0517 7.29536 29.3327 8.0026 29.3327H24.0026C24.7098 29.3327 25.3881 29.0517 25.8882 28.5516C26.3883 28.0515 26.6693 27.3733 26.6693 26.666V10.666L18.6693 2.66602Z" stroke="#737289" stroke-width="2" stroke-linecap="round" stroke-linejoin="round"/>
<path id="Vector_2" d="M18.6641 2.66602V10.666H26.6641" stroke="#737289" stroke-width="2" stroke-linecap="round" stroke-linejoin="round"/>
<path id="Vector_3" d="M21.3307 17.334H10.6641" stroke="#737289" stroke-width="2" stroke-linecap="round" stroke-linejoin="round"/>
<path id="Vector_4" d="M21.3307 22.666H10.6641" stroke="#737289" stroke-width="2" stroke-linecap="round" stroke-linejoin="round"/>
<path id="Vector_5" d="M13.3307 12H11.9974H10.6641" stroke="#737289" stroke-width="2" stroke-linecap="round" stroke-linejoin="round"/>
</g>
</svg>
