<svg width="32" height="32" viewBox="0 0 32 32" fill="none" xmlns="http://www.w3.org/2000/svg">
<g id="WOM-medium/nodes" clip-path="url(#clip0_1372_192052)">
<g id="Union">
<mask id="path-1-inside-1_1372_192052" fill="white">
<path fill-rule="evenodd" clip-rule="evenodd" d="M22.0117 9.3048C21.5338 11.0885 19.7004 12.147 17.9167 11.6691C16.133 11.1911 15.0745 9.35772 15.5524 7.57402C16.0303 5.79033 17.8638 4.7318 19.6475 5.20974C21.4312 5.68768 22.4897 7.5211 22.0117 9.3048ZM20.0193 13.1232C19.229 13.3327 18.3749 13.3448 17.5285 13.118C16.6858 12.8922 15.9549 12.4576 15.3765 11.8848L10.6762 16.5057C12.1724 17.9522 12.8595 20.1458 12.2827 22.2985C12.2544 22.4043 12.2234 22.5086 12.1897 22.6114L18.4467 24.288C18.4677 24.182 18.4924 24.0759 18.5207 23.97C19.0025 22.1721 20.4348 20.8828 22.1321 20.498L21.1602 16.9978L20.0193 13.1232ZM23.662 20.4014L22.6039 16.5909L22.604 16.5908L22.6007 16.5797L21.4032 12.5126C22.3806 11.884 23.1362 10.9039 23.4606 9.69303C24.153 7.10913 22.6196 4.4532 20.0357 3.76085C17.4518 3.0685 14.7959 4.6019 14.1035 7.1858C13.7783 8.39944 13.9442 9.62897 14.4792 10.6635L9.45783 15.5999C9.03799 15.3652 8.58253 15.1782 8.09668 15.048C4.93858 14.2018 1.69245 16.076 0.846243 19.2341C3.29465e-05 22.3922 1.87419 25.6383 5.03229 26.4845C7.57478 27.1658 10.1743 26.0839 11.5327 23.9883L18.3921 25.8263C18.6304 27.7223 19.9859 29.377 21.9457 29.9021C24.5296 30.5945 27.1855 29.0611 27.8779 26.4772C28.5702 23.8933 27.0368 21.2374 24.4529 20.545C24.1893 20.4744 23.925 20.4269 23.662 20.4014ZM5.42051 25.0356C7.77841 25.6674 10.202 24.2681 10.8338 21.9103C11.4656 19.5524 10.0664 17.1287 7.70845 16.4969C5.35056 15.8651 2.92693 17.2644 2.29513 19.6223C1.66333 21.9802 3.06262 24.4038 5.42051 25.0356ZM26.429 26.089C25.951 27.8727 24.1176 28.9312 22.3339 28.4533C20.5502 27.9753 19.4917 26.1419 19.9696 24.3582C20.4476 22.5745 22.281 21.516 24.0647 21.9939C25.8484 22.4718 26.9069 24.3053 26.429 26.089Z"/>
</mask>
<path d="M20.0193 13.1232L21.4583 12.6995L21.0459 11.2991L19.6349 11.6733L20.0193 13.1232ZM15.3765 11.8848L16.432 10.819L15.3803 9.77758L14.3249 10.8151L15.3765 11.8848ZM10.6762 16.5057L9.62458 15.436L8.52739 16.5146L9.63356 17.5841L10.6762 16.5057ZM12.1897 22.6114L10.764 22.1452L10.2717 23.6504L11.8015 24.0603L12.1897 22.6114ZM18.4467 24.288L18.0585 25.7369L19.607 26.1518L19.9182 24.5792L18.4467 24.288ZM22.1321 20.498L22.4638 21.9609L23.9984 21.6129L23.5774 20.0967L22.1321 20.498ZM21.1602 16.9978L22.6055 16.5965L22.6024 16.5853L22.5991 16.5742L21.1602 16.9978ZM23.662 20.4014L22.2167 20.8027L22.4922 21.7948L23.5169 21.8943L23.662 20.4014ZM22.6039 16.5909L22.207 15.1443L20.756 15.5424L21.1586 16.9922L22.6039 16.5909ZM22.604 16.5908L23.0009 18.0374L24.4745 17.6331L24.0429 16.1672L22.604 16.5908ZM22.6007 16.5797L24.0397 16.1561L24.0396 16.156L22.6007 16.5797ZM21.4032 12.5126L20.5919 11.2509L19.647 11.8586L19.9643 12.9362L21.4032 12.5126ZM14.4792 10.6635L15.5308 11.7331L16.32 10.9573L15.8116 9.97432L14.4792 10.6635ZM9.45783 15.5999L8.72585 16.9092L9.70745 17.458L10.5094 16.6696L9.45783 15.5999ZM11.5327 23.9883L11.921 22.5394L10.8674 22.2571L10.274 23.1724L11.5327 23.9883ZM18.3921 25.8263L19.8803 25.6391L19.7545 24.6384L18.7803 24.3774L18.3921 25.8263ZM17.5285 13.118C20.1124 13.8103 22.7683 12.2769 23.4606 9.69303L20.5629 8.91657C20.2993 9.90007 19.2884 10.4837 18.3049 10.2202L17.5285 13.118ZM14.1035 7.1858C13.4112 9.76969 14.9446 12.4256 17.5285 13.118L18.3049 10.2202C17.3214 9.95667 16.7378 8.94575 17.0013 7.96225L14.1035 7.1858ZM20.0357 3.76085C17.4518 3.0685 14.7959 4.6019 14.1035 7.1858L17.0013 7.96225C17.2648 6.97875 18.2757 6.3951 19.2592 6.65863L20.0357 3.76085ZM23.4606 9.69303C24.153 7.10913 22.6196 4.4532 20.0357 3.76085L19.2592 6.65863C20.2427 6.92216 20.8264 7.93307 20.5629 8.91657L23.4606 9.69303ZM17.1402 14.5669C18.2463 14.8632 19.367 14.848 20.4038 14.5731L19.6349 11.6733C19.091 11.8175 18.5034 11.8263 17.9167 11.6691L17.1402 14.5669ZM14.3211 12.9506C15.0799 13.7021 16.0391 14.2718 17.1402 14.5669L17.9167 11.6691C17.3326 11.5126 16.83 11.2131 16.432 10.819L14.3211 12.9506ZM11.7277 17.5753L16.4281 12.9545L14.3249 10.8151L9.62458 15.436L11.7277 17.5753ZM13.7316 22.6867C14.4551 19.9866 13.5909 17.2372 11.7188 15.4273L9.63356 17.5841C10.7538 18.6672 11.264 20.3049 10.8338 21.9103L13.7316 22.6867ZM13.6154 23.0777C13.6575 22.9491 13.6962 22.8187 13.7316 22.6867L10.8338 21.9103C10.8125 21.9898 10.7892 22.0681 10.764 22.1452L13.6154 23.0777ZM18.835 22.8391L12.5779 21.1625L11.8015 24.0603L18.0585 25.7369L18.835 22.8391ZM17.0719 23.5817C17.0349 23.7198 17.0027 23.8582 16.9753 23.9968L19.9182 24.5792C19.9327 24.5057 19.9499 24.432 19.9696 24.3582L17.0719 23.5817ZM21.8004 19.0351C19.5817 19.5382 17.7033 21.2251 17.0719 23.5817L19.9696 24.3582C20.3016 23.1191 21.2879 22.2275 22.4638 21.9609L21.8004 19.0351ZM19.7148 17.3992L20.6868 20.8993L23.5774 20.0967L22.6055 16.5965L19.7148 17.3992ZM18.5804 13.5468L19.7212 17.4215L22.5991 16.5742L21.4583 12.6995L18.5804 13.5468ZM25.1073 20L24.0492 16.1895L21.1586 16.9922L22.2167 20.8027L25.1073 20ZM23.0008 18.0374L23.0009 18.0374L22.2071 15.1443L22.207 15.1443L23.0008 18.0374ZM24.0429 16.1672L24.0397 16.1561L21.1618 17.0033L21.1651 17.0145L24.0429 16.1672ZM24.0396 16.156L22.8421 12.0889L19.9643 12.9362L21.1618 17.0034L24.0396 16.156ZM22.2146 13.7742C23.4933 12.9518 24.4848 11.6662 24.9095 10.0813L22.0117 9.3048C21.7875 10.1415 21.2678 10.8162 20.5919 11.2509L22.2146 13.7742ZM24.9095 10.0813C25.8163 6.69716 23.808 3.21873 20.4239 2.31196L19.6475 5.20974C21.4312 5.68768 22.4897 7.5211 22.0117 9.3048L24.9095 10.0813ZM20.4239 2.31196C17.0398 1.4052 13.5614 3.41347 12.6546 6.79757L15.5524 7.57402C16.0303 5.79033 17.8638 4.7318 19.6475 5.20974L20.4239 2.31196ZM12.6546 6.79757C12.2289 8.38621 12.4468 9.99907 13.1469 11.3526L15.8116 9.97432C15.4415 9.25887 15.3277 8.41266 15.5524 7.57402L12.6546 6.79757ZM13.4277 9.59379L8.40626 14.5303L10.5094 16.6696L15.5308 11.7331L13.4277 9.59379ZM10.1898 14.2907C9.6625 13.9958 9.09166 13.7617 8.48491 13.5992L7.70845 16.4969C8.0734 16.5947 8.41348 16.7346 8.72585 16.9092L10.1898 14.2907ZM8.48491 13.5992C4.52661 12.5385 0.457976 14.8876 -0.602646 18.8459L2.29513 19.6223C2.92693 17.2644 5.35056 15.8651 7.70845 16.4969L8.48491 13.5992ZM-0.602646 18.8459C-1.66327 22.8042 0.685761 26.8728 4.64406 27.9334L5.42051 25.0356C3.06262 24.4038 1.66333 21.9802 2.29513 19.6223L-0.602646 18.8459ZM4.64406 27.9334C7.83298 28.7879 11.0897 27.4294 12.7914 24.8042L10.274 23.1724C9.25896 24.7383 7.31658 25.5437 5.42051 25.0356L4.64406 27.9334ZM11.1445 25.4372L18.0038 27.2751L18.7803 24.3774L11.921 22.5394L11.1445 25.4372ZM16.9038 26.0134C17.2156 28.4937 18.9885 30.6627 21.5575 31.351L22.3339 28.4533C20.9833 28.0914 20.0453 26.951 19.8803 25.6391L16.9038 26.0134ZM21.5575 31.351C24.9416 32.2578 28.42 30.2495 29.3268 26.8654L26.429 26.089C25.951 27.8727 24.1176 28.9312 22.3339 28.4533L21.5575 31.351ZM29.3268 26.8654C30.2335 23.4813 28.2253 20.0029 24.8412 19.0961L24.0647 21.9939C25.8484 22.4718 26.9069 24.3053 26.429 26.089L29.3268 26.8654ZM24.8412 19.0961C24.4975 19.0041 24.1518 18.9419 23.8071 18.9084L23.5169 21.8943C23.6981 21.9119 23.8811 21.9447 24.0647 21.9939L24.8412 19.0961ZM9.38495 21.522C8.96756 23.0797 7.36644 24.0041 5.80874 23.5867L5.03229 26.4845C8.19038 27.3307 11.4365 25.4566 12.2827 22.2985L9.38495 21.522ZM7.32023 17.9458C8.87792 18.3632 9.80233 19.9643 9.38495 21.522L12.2827 22.2985C13.1289 19.1404 11.2548 15.8943 8.09668 15.048L7.32023 17.9458ZM3.74402 20.0105C4.1614 18.4528 5.76253 17.5284 7.32023 17.9458L8.09668 15.048C4.93859 14.2018 1.69245 16.076 0.846243 19.2341L3.74402 20.0105ZM5.80874 23.5867C4.25104 23.1694 3.32664 21.5682 3.74402 20.0105L0.846243 19.2341C3.30023e-05 22.3922 1.87419 25.6383 5.03229 26.4845L5.80874 23.5867ZM21.9457 29.9021C24.5296 30.5945 27.1855 29.0611 27.8779 26.4772L24.9801 25.7007C24.7166 26.6842 23.7057 27.2679 22.7222 27.0044L21.9457 29.9021ZM18.5207 23.97C17.8284 26.5539 19.3618 29.2098 21.9457 29.9021L22.7222 27.0044C21.7387 26.7408 21.155 25.7299 21.4185 24.7464L18.5207 23.97ZM24.4529 20.545C21.869 19.8527 19.2131 21.3861 18.5207 23.97L21.4185 24.7464C21.6821 23.7629 22.693 23.1793 23.6765 23.4428L24.4529 20.545ZM27.8779 26.4772C28.5702 23.8933 27.0368 21.2374 24.4529 20.545L23.6765 23.4428C24.66 23.7063 25.2436 24.7172 24.9801 25.7007L27.8779 26.4772Z" fill="#737289" mask="url(#path-1-inside-1_1372_192052)"/>
</g>
</g>
<defs>
<clipPath id="clip0_1372_192052">
<rect width="32" height="32" fill="white"/>
</clipPath>
</defs>
</svg>
