<svg width="262" height="88" viewBox="0 0 262 88" fill="none" xmlns="http://www.w3.org/2000/svg">
<path d="M47.9578 41.6999C24.2091 41.5914 6.52165 57.7032 2.1435e-05 67V87.5H262V20.387C257.755 20.387 242.888 9.89024 234.007 3.15743C232.296 1.8598 230.539 0.458942 228.421 0.104567C224.02 -0.631549 220.617 2.62403 218.288 6.56181C215.499 11.2792 213.402 17.1347 208.017 18.1531C200.923 19.4946 191.611 16.917 186.246 16.2741C178.744 15.375 172.696 15.0696 167.856 15.1566C155.753 15.374 144.63 24.739 137.481 34.5062C131.612 42.5234 125.478 52.0527 121.792 58.0887C114.048 67.7106 107.21 60.241 103.272 52.3014C101.403 48.5348 99.8067 43.8443 95.6769 43.0553C91.123 42.1853 85.6433 44.9051 81.4468 47.9252C78.6388 49.9461 75.6871 52.3986 72.351 51.4827C71.1412 51.1506 69.8836 50.6122 68.6352 49.9483C61.965 46.4012 55.5124 41.7344 47.9578 41.6999Z" fill="url(#paint0_linear_2715_11400)"/>
<defs>
<linearGradient id="paint0_linear_2715_11400" x1="131" y1="0" x2="131" y2="83" gradientUnits="userSpaceOnUse">
<stop stop-color="#CCCCFE"/>
<stop offset="0.986909" stop-color="#E1DFEB" stop-opacity="0"/>
</linearGradient>
</defs>
</svg>
