<svg width="318" height="338" viewBox="0 0 318 338" fill="none" xmlns="http://www.w3.org/2000/svg">
<rect width="318" height="338" rx="12" fill="#0C0D21"/>
<path d="M37.4277 45V37.248H37.2478L35.6158 40.236H34.5598L36.5638 36.6H38.3998V45H37.4277ZM42.9834 45.168C42.3674 45.168 41.8354 45.052 41.3874 44.82C40.9394 44.58 40.5914 44.252 40.3434 43.836C40.0954 43.412 39.9714 42.924 39.9714 42.372V42.228H40.9434V42.336C40.9434 42.968 41.1274 43.452 41.4954 43.788C41.8634 44.124 42.3514 44.292 42.9594 44.292C43.5994 44.292 44.0994 44.112 44.4594 43.752C44.8194 43.392 44.9994 42.9 44.9994 42.276V42.168C44.9994 41.568 44.8234 41.092 44.4714 40.74C44.1274 40.38 43.6794 40.2 43.1274 40.2C42.8074 40.2 42.5434 40.252 42.3354 40.356C42.1274 40.452 41.9634 40.576 41.8434 40.728C41.7234 40.872 41.6234 41.012 41.5434 41.148H40.2234V36.6H45.7434V37.476H41.1954V40.38H41.3634C41.4514 40.22 41.5714 40.064 41.7234 39.912C41.8834 39.76 42.0954 39.632 42.3594 39.528C42.6234 39.424 42.9514 39.372 43.3434 39.372C43.8314 39.372 44.2714 39.484 44.6634 39.708C45.0634 39.932 45.3794 40.252 45.6114 40.668C45.8514 41.084 45.9714 41.58 45.9714 42.156V42.288C45.9714 42.856 45.8514 43.356 45.6114 43.788C45.3714 44.22 45.0274 44.56 44.5794 44.808C44.1314 45.048 43.5994 45.168 42.9834 45.168ZM47.539 45V36.6H48.487V41.544H48.655L51.343 39.132H52.663L49.411 41.988L52.759 45H51.451L48.655 42.444H48.487V45H47.539Z" fill="#737289"/>
<line x1="61" y1="40.5" x2="309" y2="40.5" stroke="#F9F8FF"/>
<path d="M36.9238 127V119.248H36.7438L35.1118 122.236H34.0558L36.0598 118.6H37.8958V127H36.9238ZM42.6955 127.168C41.7435 127.168 40.9835 126.888 40.4155 126.328C39.8555 125.76 39.5755 124.912 39.5755 123.784V121.816C39.5755 120.696 39.8555 119.852 40.4155 119.284C40.9835 118.716 41.7435 118.432 42.6955 118.432C43.6555 118.432 44.4155 118.716 44.9755 119.284C45.5435 119.852 45.8275 120.696 45.8275 121.816V123.784C45.8275 124.912 45.5435 125.76 44.9755 126.328C44.4155 126.888 43.6555 127.168 42.6955 127.168ZM42.6955 126.292C43.4155 126.292 43.9555 126.076 44.3155 125.644C44.6755 125.212 44.8555 124.608 44.8555 123.832V121.756C44.8555 120.98 44.6715 120.38 44.3035 119.956C43.9355 119.524 43.3995 119.308 42.6955 119.308C41.9915 119.308 41.4555 119.524 41.0875 119.956C40.7275 120.388 40.5475 120.988 40.5475 121.756V123.832C40.5475 124.616 40.7275 125.224 41.0875 125.656C41.4475 126.08 41.9835 126.292 42.6955 126.292ZM47.539 127V118.6H48.487V123.544H48.655L51.343 121.132H52.663L49.411 123.988L52.759 127H51.451L48.655 124.444H48.487V127H47.539Z" fill="#737289"/>
<line x1="61" y1="122.5" x2="309" y2="122.5" stroke="#F9F8FF"/>
<path d="M42.9834 209.168C42.3674 209.168 41.8354 209.052 41.3874 208.82C40.9394 208.58 40.5914 208.252 40.3434 207.836C40.0954 207.412 39.9714 206.924 39.9714 206.372V206.228H40.9434V206.336C40.9434 206.968 41.1274 207.452 41.4954 207.788C41.8634 208.124 42.3514 208.292 42.9594 208.292C43.5994 208.292 44.0994 208.112 44.4594 207.752C44.8194 207.392 44.9994 206.9 44.9994 206.276V206.168C44.9994 205.568 44.8234 205.092 44.4714 204.74C44.1274 204.38 43.6794 204.2 43.1274 204.2C42.8074 204.2 42.5434 204.252 42.3354 204.356C42.1274 204.452 41.9634 204.576 41.8434 204.728C41.7234 204.872 41.6234 205.012 41.5434 205.148H40.2234V200.6H45.7434V201.476H41.1954V204.38H41.3634C41.4514 204.22 41.5714 204.064 41.7234 203.912C41.8834 203.76 42.0954 203.632 42.3594 203.528C42.6234 203.424 42.9514 203.372 43.3434 203.372C43.8314 203.372 44.2714 203.484 44.6634 203.708C45.0634 203.932 45.3794 204.252 45.6114 204.668C45.8514 205.084 45.9714 205.58 45.9714 206.156V206.288C45.9714 206.856 45.8514 207.356 45.6114 207.788C45.3714 208.22 45.0274 208.56 44.5794 208.808C44.1314 209.048 43.5994 209.168 42.9834 209.168ZM47.539 209V200.6H48.487V205.544H48.655L51.343 203.132H52.663L49.411 205.988L52.759 209H51.451L48.655 206.444H48.487V209H47.539Z" fill="#737289"/>
<line x1="61" y1="204.5" x2="309" y2="204.5" stroke="#F9F8FF"/>
<path d="M42.6955 291.168C41.7435 291.168 40.9835 290.888 40.4155 290.328C39.8555 289.76 39.5755 288.912 39.5755 287.784V285.816C39.5755 284.696 39.8555 283.852 40.4155 283.284C40.9835 282.716 41.7435 282.432 42.6955 282.432C43.6555 282.432 44.4155 282.716 44.9755 283.284C45.5435 283.852 45.8275 284.696 45.8275 285.816V287.784C45.8275 288.912 45.5435 289.76 44.9755 290.328C44.4155 290.888 43.6555 291.168 42.6955 291.168ZM42.6955 290.292C43.4155 290.292 43.9555 290.076 44.3155 289.644C44.6755 289.212 44.8555 288.608 44.8555 287.832V285.756C44.8555 284.98 44.6715 284.38 44.3035 283.956C43.9355 283.524 43.3995 283.308 42.6955 283.308C41.9915 283.308 41.4555 283.524 41.0875 283.956C40.7275 284.388 40.5475 284.988 40.5475 285.756V287.832C40.5475 288.616 40.7275 289.224 41.0875 289.656C41.4475 290.08 41.9835 290.292 42.6955 290.292ZM47.539 291V282.6H48.487V287.544H48.655L51.343 285.132H52.663L49.411 287.988L52.759 291H51.451L48.655 288.444H48.487V291H47.539Z" fill="#737289"/>
<line x1="61" y1="286.5" x2="309" y2="286.5" stroke="#F9F8FF"/>
<path d="M75.46 309V300.6H77.38L79.612 308.364H79.768L82 300.6H83.92V309H82.948V301.26H82.78L80.56 309H78.82L76.6 301.26H76.432V309H75.46ZM87.6788 309.168C87.2708 309.168 86.8988 309.096 86.5628 308.952C86.2268 308.808 85.9628 308.6 85.7708 308.328C85.5788 308.056 85.4828 307.724 85.4828 307.332C85.4828 306.932 85.5788 306.604 85.7708 306.348C85.9628 306.084 86.2268 305.888 86.5628 305.76C86.8988 305.624 87.2748 305.556 87.6908 305.556H89.6708V305.124C89.6708 304.708 89.5468 304.38 89.2988 304.14C89.0588 303.9 88.6988 303.78 88.2188 303.78C87.7468 303.78 87.3788 303.896 87.1148 304.128C86.8508 304.352 86.6708 304.656 86.5748 305.04L85.6868 304.752C85.7828 304.424 85.9348 304.128 86.1428 303.864C86.3508 303.592 86.6268 303.376 86.9708 303.216C87.3228 303.048 87.7428 302.964 88.2308 302.964C88.9828 302.964 89.5668 303.16 89.9828 303.552C90.3988 303.936 90.6068 304.48 90.6068 305.184V307.836C90.6068 308.076 90.7188 308.196 90.9428 308.196H91.4828V309H90.6548C90.3908 309 90.1788 308.928 90.0188 308.784C89.8588 308.632 89.7788 308.432 89.7788 308.184V308.124H89.6348C89.5468 308.276 89.4268 308.436 89.2748 308.604C89.1308 308.764 88.9308 308.896 88.6748 309C88.4188 309.112 88.0868 309.168 87.6788 309.168ZM87.7868 308.352C88.3468 308.352 88.7988 308.188 89.1428 307.86C89.4948 307.524 89.6708 307.056 89.6708 306.456V306.324H87.7268C87.3508 306.324 87.0388 306.408 86.7908 306.576C86.5508 306.736 86.4308 306.98 86.4308 307.308C86.4308 307.636 86.5548 307.892 86.8028 308.076C87.0588 308.26 87.3868 308.352 87.7868 308.352ZM93.3368 311.4V310.56H96.6968C96.9288 310.56 97.0448 310.44 97.0448 310.2V308.064H96.8768C96.7968 308.232 96.6728 308.4 96.5048 308.568C96.3448 308.728 96.1328 308.86 95.8688 308.964C95.6048 309.06 95.2728 309.108 94.8728 309.108C94.4488 309.108 94.0568 309.016 93.6968 308.832C93.3448 308.648 93.0648 308.376 92.8568 308.016C92.6568 307.656 92.5568 307.216 92.5568 306.696V303.132H93.5048V306.624C93.5048 307.2 93.6488 307.62 93.9368 307.884C94.2328 308.148 94.6288 308.28 95.1248 308.28C95.6848 308.28 96.1448 308.096 96.5048 307.728C96.8648 307.36 97.0448 306.812 97.0448 306.084V303.132H97.9928V310.368C97.9928 310.688 97.9008 310.94 97.7168 311.124C97.5408 311.308 97.2808 311.4 96.9368 311.4H93.3368ZM103.887 309V308.7C103.887 308.42 103.911 308.184 103.959 307.992C104.007 307.8 104.099 307.572 104.235 307.308L107.439 301.608V301.476H102.447V300.6H108.459V301.752L105.111 307.752C105.015 307.92 104.947 308.072 104.907 308.208C104.875 308.344 104.859 308.516 104.859 308.724V309H103.887Z" fill="#737289"/>
<path d="M136.46 309V300.6H138.38L140.612 308.364H140.768L143 300.6H144.92V309H143.948V301.26H143.78L141.56 309H139.82L137.6 301.26H137.432V309H136.46ZM148.679 309.168C148.271 309.168 147.899 309.096 147.563 308.952C147.227 308.808 146.963 308.6 146.771 308.328C146.579 308.056 146.483 307.724 146.483 307.332C146.483 306.932 146.579 306.604 146.771 306.348C146.963 306.084 147.227 305.888 147.563 305.76C147.899 305.624 148.275 305.556 148.691 305.556H150.671V305.124C150.671 304.708 150.547 304.38 150.299 304.14C150.059 303.9 149.699 303.78 149.219 303.78C148.747 303.78 148.379 303.896 148.115 304.128C147.851 304.352 147.671 304.656 147.575 305.04L146.687 304.752C146.783 304.424 146.935 304.128 147.143 303.864C147.351 303.592 147.627 303.376 147.971 303.216C148.323 303.048 148.743 302.964 149.231 302.964C149.983 302.964 150.567 303.16 150.983 303.552C151.399 303.936 151.607 304.48 151.607 305.184V307.836C151.607 308.076 151.719 308.196 151.943 308.196H152.483V309H151.655C151.391 309 151.179 308.928 151.019 308.784C150.859 308.632 150.779 308.432 150.779 308.184V308.124H150.635C150.547 308.276 150.427 308.436 150.275 308.604C150.131 308.764 149.931 308.896 149.675 309C149.419 309.112 149.087 309.168 148.679 309.168ZM148.787 308.352C149.347 308.352 149.799 308.188 150.143 307.86C150.495 307.524 150.671 307.056 150.671 306.456V306.324H148.727C148.351 306.324 148.039 306.408 147.791 306.576C147.551 306.736 147.431 306.98 147.431 307.308C147.431 307.636 147.555 307.892 147.803 308.076C148.059 308.26 148.387 308.352 148.787 308.352ZM154.337 311.4V310.56H157.697C157.929 310.56 158.045 310.44 158.045 310.2V308.064H157.877C157.797 308.232 157.673 308.4 157.505 308.568C157.345 308.728 157.133 308.86 156.869 308.964C156.605 309.06 156.273 309.108 155.873 309.108C155.449 309.108 155.057 309.016 154.697 308.832C154.345 308.648 154.065 308.376 153.857 308.016C153.657 307.656 153.557 307.216 153.557 306.696V303.132H154.505V306.624C154.505 307.2 154.649 307.62 154.937 307.884C155.233 308.148 155.629 308.28 156.125 308.28C156.685 308.28 157.145 308.096 157.505 307.728C157.865 307.36 158.045 306.812 158.045 306.084V303.132H158.993V310.368C158.993 310.688 158.901 310.94 158.717 311.124C158.541 311.308 158.281 311.4 157.937 311.4H154.337ZM166.146 309V301.248H165.967L164.335 304.236H163.279L165.283 300.6H167.119V309H166.146ZM172.842 309V307.284H168.462V306.132L171.99 300.6H173.814V306.408H175.254V307.284H173.814V309H172.842ZM169.434 306.408H172.842V301.188H172.674L169.434 306.264V306.408Z" fill="#737289"/>
<path d="M200.96 309V300.6H202.88L205.112 308.364H205.268L207.5 300.6H209.42V309H208.448V301.26H208.28L206.06 309H204.32L202.1 301.26H201.932V309H200.96ZM213.179 309.168C212.771 309.168 212.399 309.096 212.063 308.952C211.727 308.808 211.463 308.6 211.271 308.328C211.079 308.056 210.983 307.724 210.983 307.332C210.983 306.932 211.079 306.604 211.271 306.348C211.463 306.084 211.727 305.888 212.063 305.76C212.399 305.624 212.775 305.556 213.191 305.556H215.171V305.124C215.171 304.708 215.047 304.38 214.799 304.14C214.559 303.9 214.199 303.78 213.719 303.78C213.247 303.78 212.879 303.896 212.615 304.128C212.351 304.352 212.171 304.656 212.075 305.04L211.187 304.752C211.283 304.424 211.435 304.128 211.643 303.864C211.851 303.592 212.127 303.376 212.471 303.216C212.823 303.048 213.243 302.964 213.731 302.964C214.483 302.964 215.067 303.16 215.483 303.552C215.899 303.936 216.107 304.48 216.107 305.184V307.836C216.107 308.076 216.219 308.196 216.443 308.196H216.983V309H216.155C215.891 309 215.679 308.928 215.519 308.784C215.359 308.632 215.279 308.432 215.279 308.184V308.124H215.135C215.047 308.276 214.927 308.436 214.775 308.604C214.631 308.764 214.431 308.896 214.175 309C213.919 309.112 213.587 309.168 213.179 309.168ZM213.287 308.352C213.847 308.352 214.299 308.188 214.643 307.86C214.995 307.524 215.171 307.056 215.171 306.456V306.324H213.227C212.851 306.324 212.539 306.408 212.291 306.576C212.051 306.736 211.931 306.98 211.931 307.308C211.931 307.636 212.055 307.892 212.303 308.076C212.559 308.26 212.887 308.352 213.287 308.352ZM218.837 311.4V310.56H222.197C222.429 310.56 222.545 310.44 222.545 310.2V308.064H222.377C222.297 308.232 222.173 308.4 222.005 308.568C221.845 308.728 221.633 308.86 221.369 308.964C221.105 309.06 220.773 309.108 220.373 309.108C219.949 309.108 219.557 309.016 219.197 308.832C218.845 308.648 218.565 308.376 218.357 308.016C218.157 307.656 218.057 307.216 218.057 306.696V303.132H219.005V306.624C219.005 307.2 219.149 307.62 219.437 307.884C219.733 308.148 220.129 308.28 220.625 308.28C221.185 308.28 221.645 308.096 222.005 307.728C222.365 307.36 222.545 306.812 222.545 306.084V303.132H223.493V310.368C223.493 310.688 223.401 310.94 223.217 311.124C223.041 311.308 222.781 311.4 222.437 311.4H218.837ZM228.199 309V308.124C228.199 307.524 228.303 307.044 228.511 306.684C228.727 306.324 229.023 306.036 229.399 305.82C229.783 305.596 230.239 305.404 230.767 305.244L231.427 305.04C231.787 304.928 232.103 304.792 232.375 304.632C232.647 304.464 232.859 304.256 233.011 304.008C233.163 303.752 233.239 303.44 233.239 303.072V303.024C233.239 302.496 233.055 302.08 232.687 301.776C232.319 301.464 231.847 301.308 231.271 301.308C230.663 301.308 230.167 301.472 229.783 301.8C229.399 302.12 229.207 302.608 229.207 303.264V303.432H228.247V303.276C228.247 302.668 228.379 302.152 228.643 301.728C228.907 301.304 229.267 300.984 229.723 300.768C230.179 300.544 230.695 300.432 231.271 300.432C231.847 300.432 232.355 300.54 232.795 300.756C233.243 300.972 233.591 301.272 233.839 301.656C234.087 302.04 234.211 302.488 234.211 303V303.108C234.211 303.652 234.103 304.104 233.887 304.464C233.671 304.816 233.371 305.104 232.987 305.328C232.611 305.552 232.167 305.744 231.655 305.904L231.007 306.108C230.599 306.236 230.259 306.372 229.987 306.516C229.723 306.652 229.523 306.828 229.387 307.044C229.251 307.26 229.183 307.552 229.183 307.92V308.124H234.139V309H228.199ZM237.877 309V301.248H237.697L236.065 304.236H235.009L237.013 300.6H238.849V309H237.877Z" fill="#737289"/>
<path d="M263.46 309V300.6H265.38L267.612 308.364H267.768L270 300.6H271.92V309H270.948V301.26H270.78L268.56 309H266.82L264.6 301.26H264.432V309H263.46ZM275.679 309.168C275.271 309.168 274.899 309.096 274.563 308.952C274.227 308.808 273.963 308.6 273.771 308.328C273.579 308.056 273.483 307.724 273.483 307.332C273.483 306.932 273.579 306.604 273.771 306.348C273.963 306.084 274.227 305.888 274.563 305.76C274.899 305.624 275.275 305.556 275.691 305.556H277.671V305.124C277.671 304.708 277.547 304.38 277.299 304.14C277.059 303.9 276.699 303.78 276.219 303.78C275.747 303.78 275.379 303.896 275.115 304.128C274.851 304.352 274.671 304.656 274.575 305.04L273.687 304.752C273.783 304.424 273.935 304.128 274.143 303.864C274.351 303.592 274.627 303.376 274.971 303.216C275.323 303.048 275.743 302.964 276.231 302.964C276.983 302.964 277.567 303.16 277.983 303.552C278.399 303.936 278.607 304.48 278.607 305.184V307.836C278.607 308.076 278.719 308.196 278.943 308.196H279.483V309H278.655C278.391 309 278.179 308.928 278.019 308.784C277.859 308.632 277.779 308.432 277.779 308.184V308.124H277.635C277.547 308.276 277.427 308.436 277.275 308.604C277.131 308.764 276.931 308.896 276.675 309C276.419 309.112 276.087 309.168 275.679 309.168ZM275.787 308.352C276.347 308.352 276.799 308.188 277.143 307.86C277.495 307.524 277.671 307.056 277.671 306.456V306.324H275.727C275.351 306.324 275.039 306.408 274.791 306.576C274.551 306.736 274.431 306.98 274.431 307.308C274.431 307.636 274.555 307.892 274.803 308.076C275.059 308.26 275.387 308.352 275.787 308.352ZM281.337 311.4V310.56H284.697C284.929 310.56 285.045 310.44 285.045 310.2V308.064H284.877C284.797 308.232 284.673 308.4 284.505 308.568C284.345 308.728 284.133 308.86 283.869 308.964C283.605 309.06 283.273 309.108 282.873 309.108C282.449 309.108 282.057 309.016 281.697 308.832C281.345 308.648 281.065 308.376 280.857 308.016C280.657 307.656 280.557 307.216 280.557 306.696V303.132H281.505V306.624C281.505 307.2 281.649 307.62 281.937 307.884C282.233 308.148 282.629 308.28 283.125 308.28C283.685 308.28 284.145 308.096 284.505 307.728C284.865 307.36 285.045 306.812 285.045 306.084V303.132H285.993V310.368C285.993 310.688 285.901 310.94 285.717 311.124C285.541 311.308 285.281 311.4 284.937 311.4H281.337ZM290.699 309V308.124C290.699 307.524 290.803 307.044 291.011 306.684C291.227 306.324 291.523 306.036 291.899 305.82C292.283 305.596 292.739 305.404 293.267 305.244L293.927 305.04C294.287 304.928 294.603 304.792 294.875 304.632C295.147 304.464 295.359 304.256 295.511 304.008C295.663 303.752 295.739 303.44 295.739 303.072V303.024C295.739 302.496 295.555 302.08 295.187 301.776C294.819 301.464 294.347 301.308 293.771 301.308C293.163 301.308 292.667 301.472 292.283 301.8C291.899 302.12 291.707 302.608 291.707 303.264V303.432H290.747V303.276C290.747 302.668 290.879 302.152 291.143 301.728C291.407 301.304 291.767 300.984 292.223 300.768C292.679 300.544 293.195 300.432 293.771 300.432C294.347 300.432 294.855 300.54 295.295 300.756C295.743 300.972 296.091 301.272 296.339 301.656C296.587 302.04 296.711 302.488 296.711 303V303.108C296.711 303.652 296.603 304.104 296.387 304.464C296.171 304.816 295.871 305.104 295.487 305.328C295.111 305.552 294.667 305.744 294.155 305.904L293.507 306.108C293.099 306.236 292.759 306.372 292.487 306.516C292.223 306.652 292.023 306.828 291.887 307.044C291.751 307.26 291.683 307.552 291.683 307.92V308.124H296.639V309H290.699ZM301.025 309.168C300.377 309.168 299.813 309.072 299.333 308.88C298.861 308.68 298.493 308.404 298.229 308.052C297.973 307.692 297.845 307.272 297.845 306.792V306.66C297.845 306.244 297.933 305.9 298.109 305.628C298.285 305.356 298.497 305.148 298.745 305.004C299.001 304.852 299.237 304.756 299.453 304.716V304.56C299.237 304.496 299.013 304.392 298.781 304.248C298.557 304.104 298.369 303.908 298.217 303.66C298.073 303.412 298.001 303.108 298.001 302.748V302.616C298.001 302.16 298.129 301.772 298.385 301.452C298.649 301.124 299.009 300.872 299.465 300.696C299.921 300.52 300.441 300.432 301.025 300.432C301.617 300.432 302.137 300.52 302.585 300.696C303.041 300.872 303.397 301.124 303.653 301.452C303.917 301.772 304.049 302.16 304.049 302.616V302.748C304.049 303.108 303.977 303.412 303.833 303.66C303.689 303.908 303.505 304.104 303.281 304.248C303.057 304.392 302.833 304.496 302.609 304.56V304.716C302.833 304.756 303.069 304.852 303.317 305.004C303.565 305.148 303.773 305.356 303.941 305.628C304.117 305.9 304.205 306.244 304.205 306.66V306.792C304.205 307.272 304.077 307.692 303.821 308.052C303.565 308.404 303.197 308.68 302.717 308.88C302.245 309.072 301.681 309.168 301.025 309.168ZM301.025 308.292C301.705 308.292 302.241 308.16 302.633 307.896C303.033 307.632 303.233 307.248 303.233 306.744V306.648C303.233 306.144 303.037 305.76 302.645 305.496C302.253 305.232 301.713 305.1 301.025 305.1C300.345 305.1 299.809 305.232 299.417 305.496C299.025 305.76 298.829 306.144 298.829 306.648V306.744C298.829 307.248 299.025 307.632 299.417 307.896C299.817 308.16 300.353 308.292 301.025 308.292ZM301.025 304.224C301.665 304.224 302.165 304.104 302.525 303.864C302.893 303.616 303.077 303.268 303.077 302.82V302.724C303.077 302.268 302.893 301.92 302.525 301.68C302.157 301.432 301.657 301.308 301.025 301.308C300.393 301.308 299.893 301.432 299.525 301.68C299.157 301.92 298.973 302.268 298.973 302.724V302.82C298.973 303.268 299.157 303.616 299.525 303.864C299.893 304.104 300.393 304.224 301.025 304.224Z" fill="#737289"/>
<path d="M19 148.12H11.776V150.7H10.6V144.244H11.776V146.824H19V148.12ZM19.168 141.421C19.168 142.013 19.048 142.541 18.808 143.005C18.56 143.461 18.208 143.821 17.752 144.085C17.296 144.349 16.756 144.481 16.132 144.481H15.952C15.328 144.481 14.792 144.349 14.344 144.085C13.888 143.821 13.536 143.461 13.288 143.005C13.04 142.541 12.916 142.013 12.916 141.421C12.916 140.829 13.04 140.301 13.288 139.837C13.536 139.373 13.888 139.009 14.344 138.745C14.792 138.481 15.328 138.349 15.952 138.349H16.132C16.756 138.349 17.296 138.481 17.752 138.745C18.208 139.009 18.56 139.373 18.808 139.837C19.048 140.301 19.168 140.829 19.168 141.421ZM18.064 141.421C18.064 140.877 17.892 140.437 17.548 140.101C17.196 139.757 16.712 139.585 16.096 139.585H15.988C15.372 139.585 14.892 139.753 14.548 140.089C14.196 140.425 14.02 140.869 14.02 141.421C14.02 141.957 14.196 142.397 14.548 142.741C14.892 143.077 15.372 143.245 15.988 143.245H16.096C16.712 143.245 17.196 143.077 17.548 142.741C17.892 142.397 18.064 141.957 18.064 141.421ZM19 134.802C19 135.162 18.892 135.45 18.676 135.666C18.46 135.874 18.172 135.978 17.812 135.978H14.128L14.128 137.61H13.084V135.978H11.128V134.742H13.084V132.978H14.128V134.742H17.596C17.836 134.742 17.956 134.63 17.956 134.406V133.17H19V134.802ZM19.168 129.701C19.168 130.125 19.096 130.505 18.952 130.841C18.808 131.169 18.596 131.433 18.316 131.633C18.036 131.825 17.696 131.921 17.296 131.921C16.888 131.921 16.552 131.825 16.288 131.633C16.016 131.433 15.812 131.165 15.676 130.829C15.54 130.485 15.472 130.097 15.472 129.665V127.865H15.088C14.744 127.865 14.468 127.969 14.26 128.177C14.052 128.385 13.948 128.705 13.948 129.137C13.948 129.561 14.048 129.885 14.248 130.109C14.448 130.333 14.708 130.481 15.028 130.553L14.656 131.705C14.336 131.609 14.048 131.457 13.792 131.249C13.528 131.033 13.316 130.749 13.156 130.397C12.996 130.045 12.916 129.621 12.916 129.125C12.916 128.357 13.112 127.753 13.504 127.313C13.896 126.873 14.452 126.653 15.172 126.653H17.608C17.848 126.653 17.968 126.541 17.968 126.317V125.813H19V126.737C19 127.017 18.928 127.245 18.784 127.421C18.64 127.597 18.444 127.685 18.196 127.685H18.16V127.865C18.28 127.929 18.42 128.025 18.58 128.153C18.74 128.281 18.88 128.469 19 128.717C19.112 128.965 19.168 129.293 19.168 129.701ZM18.148 129.521C18.148 129.025 18.008 128.625 17.728 128.321C17.44 128.017 17.048 127.865 16.552 127.865H16.432V129.593C16.432 129.921 16.504 130.185 16.648 130.385C16.784 130.585 16.988 130.685 17.26 130.685C17.532 130.685 17.748 130.581 17.908 130.373C18.068 130.165 18.148 129.881 18.148 129.521ZM19 124.611H10.6V123.375H19V124.611ZM19 118.519H10.6V116.023L18.136 113.743V113.551H10.6V112.267H19V114.763L11.452 117.043V117.235H19V118.519ZM19.168 107.707C19.168 108.299 19.048 108.827 18.808 109.291C18.56 109.747 18.208 110.107 17.752 110.371C17.296 110.635 16.756 110.767 16.132 110.767H15.952C15.328 110.767 14.792 110.635 14.344 110.371C13.888 110.107 13.536 109.747 13.288 109.291C13.04 108.827 12.916 108.299 12.916 107.707C12.916 107.115 13.04 106.587 13.288 106.123C13.536 105.659 13.888 105.295 14.344 105.031C14.792 104.767 15.328 104.635 15.952 104.635H16.132C16.756 104.635 17.296 104.767 17.752 105.031C18.208 105.295 18.56 105.659 18.808 106.123C19.048 106.587 19.168 107.115 19.168 107.707ZM18.064 107.707C18.064 107.163 17.892 106.723 17.548 106.387C17.196 106.043 16.712 105.871 16.096 105.871H15.988C15.372 105.871 14.892 106.039 14.548 106.375C14.196 106.711 14.02 107.155 14.02 107.707C14.02 108.243 14.196 108.683 14.548 109.027C14.892 109.363 15.372 109.531 15.988 109.531H16.096C16.712 109.531 17.196 109.363 17.548 109.027C17.892 108.683 18.064 108.243 18.064 107.707ZM19.168 100.648C19.168 101.136 19.048 101.588 18.808 102.004C18.568 102.42 18.224 102.756 17.776 103.012C17.32 103.26 16.772 103.384 16.132 103.384H15.952C15.32 103.384 14.776 103.26 14.32 103.012C13.864 102.764 13.516 102.432 13.276 102.016C13.036 101.6 12.916 101.144 12.916 100.648C12.916 100.264 12.964 99.9438 13.06 99.6878C13.156 99.4238 13.28 99.2078 13.432 99.0398C13.576 98.8718 13.728 98.7438 13.888 98.6558V98.4638H10.6V97.2278H19V98.4398H18.16V98.6318C18.416 98.7838 18.648 99.0158 18.856 99.3278C19.064 99.6318 19.168 100.072 19.168 100.648ZM18.088 100.3C18.088 99.7638 17.916 99.3238 17.572 98.9798C17.228 98.6278 16.736 98.4518 16.096 98.4518H15.988C15.356 98.4518 14.868 98.6238 14.524 98.9678C14.18 99.3118 14.008 99.7558 14.008 100.3C14.008 100.828 14.18 101.268 14.524 101.62C14.868 101.964 15.356 102.136 15.988 102.136H16.096C16.736 102.136 17.228 101.964 17.572 101.62C17.916 101.268 18.088 100.828 18.088 100.3ZM19.168 92.6963C19.168 93.2963 19.044 93.8203 18.796 94.2683C18.54 94.7163 18.184 95.0683 17.728 95.3243C17.264 95.5723 16.728 95.6963 16.12 95.6963H15.976C15.36 95.6963 14.824 95.5723 14.368 95.3243C13.904 95.0763 13.548 94.7323 13.3 94.2923C13.044 93.8443 12.916 93.3283 12.916 92.7443C12.916 92.1763 13.044 91.6803 13.3 91.2563C13.548 90.8243 13.896 90.4883 14.344 90.2483C14.792 90.0083 15.316 89.8883 15.916 89.8883H16.384V94.4363C16.904 94.4203 17.32 94.2483 17.632 93.9203C17.936 93.5843 18.088 93.1683 18.088 92.6723C18.088 92.2083 17.984 91.8603 17.776 91.6283C17.568 91.3883 17.328 91.2043 17.056 91.0763L17.584 90.0563C17.808 90.1683 18.044 90.3323 18.292 90.5483C18.54 90.7563 18.748 91.0323 18.916 91.3763C19.084 91.7203 19.168 92.1603 19.168 92.6963ZM15.436 94.4243V91.1483C14.988 91.1803 14.64 91.3403 14.392 91.6283C14.136 91.9163 14.008 92.2923 14.008 92.7563C14.008 93.2203 14.136 93.6003 14.392 93.8963C14.64 94.1843 14.988 94.3603 15.436 94.4243ZM19.168 85.9765C19.168 86.7285 19 87.3525 18.664 87.8485C18.328 88.3445 17.82 88.6485 17.14 88.7605L16.864 87.6085C17.192 87.5445 17.452 87.4365 17.644 87.2845C17.836 87.1325 17.972 86.9445 18.052 86.7205C18.132 86.4885 18.172 86.2405 18.172 85.9765C18.172 85.5845 18.096 85.2845 17.944 85.0765C17.792 84.8605 17.596 84.7525 17.356 84.7525C17.116 84.7525 16.94 84.8525 16.828 85.0525C16.716 85.2525 16.624 85.5485 16.552 85.9405L16.48 86.3485C16.408 86.7485 16.304 87.1125 16.168 87.4405C16.032 87.7685 15.844 88.0285 15.604 88.2205C15.364 88.4125 15.056 88.5085 14.68 88.5085C14.12 88.5085 13.688 88.3005 13.384 87.8845C13.072 87.4685 12.916 86.9165 12.916 86.2285C12.916 85.5645 13.068 85.0205 13.372 84.5965C13.668 84.1645 14.072 83.8845 14.584 83.7565L14.908 84.9085C14.548 84.9805 14.296 85.1325 14.152 85.3645C14 85.5965 13.924 85.8845 13.924 86.2285C13.924 86.5645 13.988 86.8285 14.116 87.0205C14.236 87.2125 14.408 87.3085 14.632 87.3085C14.872 87.3085 15.048 87.2165 15.16 87.0325C15.272 86.8405 15.356 86.5845 15.412 86.2645L15.484 85.8445C15.556 85.4205 15.656 85.0325 15.784 84.6805C15.912 84.3285 16.096 84.0525 16.336 83.8525C16.576 83.6445 16.896 83.5405 17.296 83.5405C17.888 83.5405 18.348 83.7605 18.676 84.2005C19.004 84.6405 19.168 85.2325 19.168 85.9765Z" fill="white"/>
<path d="M80.3408 124.72L71 116.759V287H299V120.433L291.57 122.883L283.503 99L275.648 110.023L268.006 128.394L260.363 114.309L252.296 134.518L244.229 274.14L236.587 276.59H228.732L221.089 269.853L212.81 274.14L205.422 259.421L197.737 269.853L189.458 264.342L182.028 127.782L174.173 108.798L166.318 103.287L158.464 116.759L150.397 119.208H143.179H135.112L127.045 130.231L119.402 124.72L111.335 130.231H103.693L95.838 127.782L87.9832 124.72H80.3408Z" fill="url(#paint0_linear_1375_157495)"/>
<path d="M71 117L80.3408 125.069H87.9832L95.838 128.172L103.693 130.655H111.335L119.402 125.069L127.045 130.655L135.112 119.483H143.179H150.397L158.464 117L166.318 103.345L174.173 108.931L182.028 128.172L189.458 266.586L197.737 272.172L205.118 258.951L212.81 276.517L221.089 272.172L228.732 279H236.587L244.229 276.517L252.296 135L260.363 114.517L268.006 128.793L275.648 110.172L283.503 99L291.57 123.207L299 120.724" stroke="#3333FF"/>
<circle cx="167" cy="103" r="3.5" fill="white" stroke="white"/>
<rect x="123" y="50" width="120" height="44" rx="4" fill="white"/>
<path d="M132.024 67V59.512H129.324V58.6H135.732V59.512H133.032V67H132.024ZM138.369 67.108C137.945 67.108 137.553 67.016 137.193 66.832C136.841 66.648 136.561 66.376 136.353 66.016C136.153 65.648 136.053 65.204 136.053 64.684V61.132H137.001V64.612C137.001 65.196 137.145 65.62 137.433 65.884C137.729 66.148 138.125 66.28 138.621 66.28C139.181 66.28 139.641 66.096 140.001 65.728C140.361 65.36 140.541 64.812 140.541 64.084V61.132H141.489V67H140.565V66.004H140.397C140.269 66.284 140.049 66.54 139.737 66.772C139.425 66.996 138.969 67.108 138.369 67.108ZM146.161 67.168C145.569 67.168 145.049 67.044 144.601 66.796C144.153 66.54 143.805 66.184 143.557 65.728C143.309 65.272 143.185 64.744 143.185 64.144V64C143.185 63.392 143.309 62.86 143.557 62.404C143.805 61.948 144.149 61.596 144.589 61.348C145.029 61.092 145.533 60.964 146.101 60.964C146.653 60.964 147.141 61.084 147.565 61.324C147.989 61.556 148.321 61.892 148.561 62.332C148.801 62.772 148.921 63.288 148.921 63.88V64.312H144.133C144.157 64.944 144.361 65.44 144.745 65.8C145.129 66.152 145.609 66.328 146.185 66.328C146.689 66.328 147.077 66.212 147.349 65.98C147.621 65.748 147.829 65.472 147.973 65.152L148.789 65.548C148.669 65.796 148.501 66.044 148.285 66.292C148.077 66.54 147.801 66.748 147.457 66.916C147.121 67.084 146.689 67.168 146.161 67.168ZM144.145 63.532H147.961C147.929 62.988 147.741 62.564 147.397 62.26C147.061 61.956 146.629 61.804 146.101 61.804C145.565 61.804 145.125 61.956 144.781 62.26C144.437 62.564 144.225 62.988 144.145 63.532ZM152.938 67.168C152.21 67.168 151.594 67 151.09 66.664C150.594 66.328 150.294 65.796 150.19 65.068L151.09 64.864C151.154 65.248 151.274 65.552 151.45 65.776C151.626 65.992 151.842 66.148 152.098 66.244C152.362 66.332 152.642 66.376 152.938 66.376C153.378 66.376 153.726 66.288 153.982 66.112C154.238 65.936 154.366 65.7 154.366 65.404C154.366 65.1 154.242 64.888 153.994 64.768C153.754 64.64 153.422 64.536 152.998 64.456L152.506 64.372C152.13 64.308 151.786 64.208 151.474 64.072C151.162 63.936 150.914 63.752 150.73 63.52C150.546 63.288 150.454 62.996 150.454 62.644C150.454 62.116 150.658 61.704 151.066 61.408C151.474 61.112 152.014 60.964 152.686 60.964C153.35 60.964 153.886 61.116 154.294 61.42C154.71 61.716 154.978 62.136 155.098 62.68L154.21 62.908C154.138 62.484 153.966 62.188 153.694 62.02C153.422 61.844 153.086 61.756 152.686 61.756C152.286 61.756 151.97 61.832 151.738 61.984C151.506 62.128 151.39 62.344 151.39 62.632C151.39 62.912 151.498 63.12 151.714 63.256C151.938 63.384 152.234 63.48 152.602 63.544L153.094 63.628C153.51 63.7 153.882 63.8 154.21 63.928C154.546 64.048 154.81 64.224 155.002 64.456C155.202 64.688 155.302 64.992 155.302 65.368C155.302 65.944 155.086 66.388 154.654 66.7C154.23 67.012 153.658 67.168 152.938 67.168ZM159.386 67.168C158.882 67.168 158.418 67.048 157.994 66.808C157.57 66.568 157.234 66.22 156.986 65.764C156.738 65.308 156.614 64.768 156.614 64.144V63.988C156.614 63.364 156.738 62.828 156.986 62.38C157.234 61.924 157.566 61.576 157.982 61.336C158.406 61.088 158.874 60.964 159.386 60.964C159.794 60.964 160.138 61.02 160.418 61.132C160.706 61.236 160.938 61.372 161.114 61.54C161.29 61.7 161.426 61.872 161.522 62.056H161.69V58.6H162.638V67H161.714V66.028H161.546C161.386 66.324 161.138 66.588 160.802 66.82C160.466 67.052 159.994 67.168 159.386 67.168ZM159.638 66.328C160.246 66.328 160.738 66.136 161.114 65.752C161.498 65.36 161.69 64.816 161.69 64.12V64.012C161.69 63.316 161.498 62.776 161.114 62.392C160.738 62 160.246 61.804 159.638 61.804C159.038 61.804 158.542 62 158.15 62.392C157.766 62.776 157.574 63.316 157.574 64.012V64.12C157.574 64.816 157.766 65.36 158.15 65.752C158.542 66.136 159.038 66.328 159.638 66.328ZM166.425 67.168C166.017 67.168 165.645 67.096 165.309 66.952C164.973 66.808 164.709 66.6 164.517 66.328C164.325 66.056 164.229 65.724 164.229 65.332C164.229 64.932 164.325 64.604 164.517 64.348C164.709 64.084 164.973 63.888 165.309 63.76C165.645 63.624 166.021 63.556 166.437 63.556H168.417V63.124C168.417 62.708 168.293 62.38 168.045 62.14C167.805 61.9 167.445 61.78 166.965 61.78C166.493 61.78 166.125 61.896 165.861 62.128C165.597 62.352 165.417 62.656 165.321 63.04L164.433 62.752C164.529 62.424 164.681 62.128 164.889 61.864C165.097 61.592 165.373 61.376 165.717 61.216C166.069 61.048 166.489 60.964 166.977 60.964C167.729 60.964 168.313 61.16 168.729 61.552C169.145 61.936 169.353 62.48 169.353 63.184V65.836C169.353 66.076 169.465 66.196 169.689 66.196H170.229V67H169.401C169.137 67 168.925 66.928 168.765 66.784C168.605 66.632 168.525 66.432 168.525 66.184V66.124H168.381C168.293 66.276 168.173 66.436 168.021 66.604C167.877 66.764 167.677 66.896 167.421 67C167.165 67.112 166.833 67.168 166.425 67.168ZM166.533 66.352C167.093 66.352 167.545 66.188 167.889 65.86C168.241 65.524 168.417 65.056 168.417 64.456V64.324H166.473C166.097 64.324 165.785 64.408 165.537 64.576C165.297 64.736 165.177 64.98 165.177 65.308C165.177 65.636 165.301 65.892 165.549 66.076C165.805 66.26 166.133 66.352 166.533 66.352ZM172.083 69.4V68.56H175.443C175.675 68.56 175.791 68.44 175.791 68.2V66.064H175.623C175.543 66.232 175.419 66.4 175.251 66.568C175.091 66.728 174.879 66.86 174.615 66.964C174.351 67.06 174.019 67.108 173.619 67.108C173.195 67.108 172.803 67.016 172.443 66.832C172.091 66.648 171.811 66.376 171.603 66.016C171.403 65.656 171.303 65.216 171.303 64.696V61.132H172.251V64.624C172.251 65.2 172.395 65.62 172.683 65.884C172.979 66.148 173.375 66.28 173.871 66.28C174.431 66.28 174.891 66.096 175.251 65.728C175.611 65.36 175.791 64.812 175.791 64.084V61.132H176.739V68.368C176.739 68.688 176.647 68.94 176.463 69.124C176.287 69.308 176.027 69.4 175.683 69.4H172.083ZM178.627 68.5V67.9H178.975C179.263 67.9 179.407 67.756 179.407 67.468V67.084H179.239C179.007 67.084 178.811 67.012 178.651 66.868C178.499 66.724 178.423 66.544 178.423 66.328C178.423 66.096 178.499 65.908 178.651 65.764C178.811 65.62 179.007 65.548 179.239 65.548C179.471 65.548 179.663 65.624 179.815 65.776C179.967 65.928 180.043 66.12 180.043 66.352V67.468C180.043 68.156 179.699 68.5 179.011 68.5H178.627ZM186.506 67V59.248H186.326L184.694 62.236H183.638L185.642 58.6H187.478V67H186.506ZM192.158 67.168C191.582 67.168 191.066 67.056 190.61 66.832C190.162 66.6 189.806 66.272 189.542 65.848C189.286 65.424 189.158 64.92 189.158 64.336V61.408C189.158 60.776 189.282 60.24 189.53 59.8C189.778 59.36 190.126 59.024 190.574 58.792C191.03 58.552 191.57 58.432 192.194 58.432C192.81 58.432 193.334 58.544 193.766 58.768C194.206 58.984 194.538 59.284 194.762 59.668C194.994 60.044 195.11 60.48 195.11 60.976H194.126C194.126 60.48 193.966 60.08 193.646 59.776C193.326 59.464 192.842 59.308 192.194 59.308C191.538 59.308 191.03 59.488 190.67 59.848C190.31 60.2 190.13 60.688 190.13 61.312V62.476H190.298C190.442 62.236 190.682 62.016 191.018 61.816C191.354 61.608 191.822 61.504 192.422 61.504C192.926 61.504 193.386 61.616 193.802 61.84C194.218 62.064 194.55 62.38 194.798 62.788C195.046 63.196 195.17 63.68 195.17 64.24V64.384C195.17 64.952 195.038 65.444 194.773 65.86C194.518 66.276 194.162 66.6 193.706 66.832C193.25 67.056 192.734 67.168 192.158 67.168ZM192.158 66.292C192.766 66.292 193.258 66.12 193.634 65.776C194.01 65.432 194.198 64.964 194.198 64.372V64.276C194.198 63.876 194.11 63.532 193.934 63.244C193.766 62.956 193.53 62.732 193.226 62.572C192.922 62.404 192.566 62.32 192.158 62.32C191.758 62.32 191.406 62.404 191.102 62.572C190.798 62.732 190.558 62.956 190.382 63.244C190.214 63.532 190.13 63.876 190.13 64.276V64.372C190.13 64.964 190.318 65.432 190.694 65.776C191.07 66.12 191.558 66.292 192.158 66.292ZM199.827 67V58.6H201.747L203.979 66.364H204.135L206.367 58.6H208.287V67H207.315V59.26H207.147L204.927 67H203.187L200.967 59.26H200.799V67H199.827ZM212.046 67.168C211.638 67.168 211.266 67.096 210.93 66.952C210.594 66.808 210.33 66.6 210.138 66.328C209.946 66.056 209.85 65.724 209.85 65.332C209.85 64.932 209.946 64.604 210.138 64.348C210.33 64.084 210.594 63.888 210.93 63.76C211.266 63.624 211.642 63.556 212.058 63.556H214.038V63.124C214.038 62.708 213.914 62.38 213.666 62.14C213.426 61.9 213.066 61.78 212.586 61.78C212.114 61.78 211.746 61.896 211.482 62.128C211.218 62.352 211.038 62.656 210.942 63.04L210.054 62.752C210.15 62.424 210.302 62.128 210.51 61.864C210.718 61.592 210.994 61.376 211.338 61.216C211.69 61.048 212.11 60.964 212.598 60.964C213.35 60.964 213.934 61.16 214.35 61.552C214.766 61.936 214.974 62.48 214.974 63.184V65.836C214.974 66.076 215.086 66.196 215.31 66.196H215.85V67H215.022C214.758 67 214.546 66.928 214.386 66.784C214.226 66.632 214.146 66.432 214.146 66.184V66.124H214.002C213.914 66.276 213.794 66.436 213.642 66.604C213.498 66.764 213.298 66.896 213.042 67C212.786 67.112 212.454 67.168 212.046 67.168ZM212.154 66.352C212.714 66.352 213.166 66.188 213.51 65.86C213.862 65.524 214.038 65.056 214.038 64.456V64.324H212.094C211.718 64.324 211.406 64.408 211.158 64.576C210.918 64.736 210.798 64.98 210.798 65.308C210.798 65.636 210.922 65.892 211.17 66.076C211.426 66.26 211.754 66.352 212.154 66.352ZM217.704 69.4V68.56H221.064C221.296 68.56 221.412 68.44 221.412 68.2V66.064H221.244C221.164 66.232 221.04 66.4 220.872 66.568C220.712 66.728 220.5 66.86 220.236 66.964C219.972 67.06 219.64 67.108 219.24 67.108C218.816 67.108 218.424 67.016 218.064 66.832C217.712 66.648 217.432 66.376 217.224 66.016C217.024 65.656 216.924 65.216 216.924 64.696V61.132H217.872V64.624C217.872 65.2 218.016 65.62 218.304 65.884C218.6 66.148 218.996 66.28 219.492 66.28C220.052 66.28 220.512 66.096 220.872 65.728C221.232 65.36 221.412 64.812 221.412 64.084V61.132H222.36V68.368C222.36 68.688 222.268 68.94 222.084 69.124C221.908 69.308 221.648 69.4 221.304 69.4H217.704Z" fill="#737289"/>
<path d="M131.88 85V77.776H129.3V76.6H135.756V77.776H133.176V85H131.88ZM138.579 85.168C137.987 85.168 137.459 85.048 136.995 84.808C136.539 84.56 136.179 84.208 135.915 83.752C135.651 83.296 135.519 82.756 135.519 82.132V81.952C135.519 81.328 135.651 80.792 135.915 80.344C136.179 79.888 136.539 79.536 136.995 79.288C137.459 79.04 137.987 78.916 138.579 78.916C139.171 78.916 139.699 79.04 140.163 79.288C140.627 79.536 140.991 79.888 141.255 80.344C141.519 80.792 141.651 81.328 141.651 81.952V82.132C141.651 82.756 141.519 83.296 141.255 83.752C140.991 84.208 140.627 84.56 140.163 84.808C139.699 85.048 139.171 85.168 138.579 85.168ZM138.579 84.064C139.123 84.064 139.563 83.892 139.899 83.548C140.243 83.196 140.415 82.712 140.415 82.096V81.988C140.415 81.372 140.247 80.892 139.911 80.548C139.575 80.196 139.131 80.02 138.579 80.02C138.043 80.02 137.603 80.196 137.259 80.548C136.923 80.892 136.755 81.372 136.755 81.988V82.096C136.755 82.712 136.923 83.196 137.259 83.548C137.603 83.892 138.043 84.064 138.579 84.064ZM145.198 85C144.838 85 144.55 84.892 144.334 84.676C144.126 84.46 144.022 84.172 144.022 83.812V80.128H142.39V79.084H144.022V77.128H145.258V79.084H147.022V80.128H145.258V83.596C145.258 83.836 145.37 83.956 145.594 83.956H146.83V85H145.198ZM150.299 85.168C149.875 85.168 149.495 85.096 149.159 84.952C148.831 84.808 148.567 84.596 148.367 84.316C148.175 84.036 148.079 83.696 148.079 83.296C148.079 82.888 148.175 82.552 148.367 82.288C148.567 82.016 148.835 81.812 149.171 81.676C149.515 81.54 149.903 81.472 150.335 81.472H152.135V81.088C152.135 80.744 152.031 80.468 151.823 80.26C151.615 80.052 151.295 79.948 150.863 79.948C150.439 79.948 150.115 80.048 149.891 80.248C149.667 80.448 149.519 80.708 149.447 81.028L148.295 80.656C148.391 80.336 148.543 80.048 148.751 79.792C148.967 79.528 149.251 79.316 149.603 79.156C149.955 78.996 150.379 78.916 150.875 78.916C151.643 78.916 152.247 79.112 152.687 79.504C153.127 79.896 153.347 80.452 153.347 81.172V83.608C153.347 83.848 153.459 83.968 153.683 83.968H154.187V85H153.263C152.983 85 152.755 84.928 152.579 84.784C152.403 84.64 152.315 84.444 152.315 84.196V84.16H152.135C152.071 84.28 151.975 84.42 151.847 84.58C151.719 84.74 151.531 84.88 151.283 85C151.035 85.112 150.707 85.168 150.299 85.168ZM150.479 84.148C150.975 84.148 151.375 84.008 151.679 83.728C151.983 83.44 152.135 83.048 152.135 82.552V82.432H150.407C150.079 82.432 149.815 82.504 149.615 82.648C149.415 82.784 149.315 82.988 149.315 83.26C149.315 83.532 149.419 83.748 149.627 83.908C149.835 84.068 150.119 84.148 150.479 84.148ZM155.389 85V76.6H156.625V85H155.389ZM161.481 85V76.6H163.977L166.257 84.136H166.449V76.6H167.733V85H165.237L162.957 77.452H162.765V85H161.481ZM172.293 85.168C171.701 85.168 171.173 85.048 170.709 84.808C170.253 84.56 169.893 84.208 169.629 83.752C169.365 83.296 169.233 82.756 169.233 82.132V81.952C169.233 81.328 169.365 80.792 169.629 80.344C169.893 79.888 170.253 79.536 170.709 79.288C171.173 79.04 171.701 78.916 172.293 78.916C172.885 78.916 173.413 79.04 173.877 79.288C174.341 79.536 174.705 79.888 174.969 80.344C175.233 80.792 175.365 81.328 175.365 81.952V82.132C175.365 82.756 175.233 83.296 174.969 83.752C174.705 84.208 174.341 84.56 173.877 84.808C173.413 85.048 172.885 85.168 172.293 85.168ZM172.293 84.064C172.837 84.064 173.277 83.892 173.613 83.548C173.957 83.196 174.129 82.712 174.129 82.096V81.988C174.129 81.372 173.961 80.892 173.625 80.548C173.289 80.196 172.845 80.02 172.293 80.02C171.757 80.02 171.317 80.196 170.973 80.548C170.637 80.892 170.469 81.372 170.469 81.988V82.096C170.469 82.712 170.637 83.196 170.973 83.548C171.317 83.892 171.757 84.064 172.293 84.064ZM179.352 85.168C178.864 85.168 178.412 85.048 177.996 84.808C177.58 84.568 177.244 84.224 176.988 83.776C176.74 83.32 176.616 82.772 176.616 82.132V81.952C176.616 81.32 176.74 80.776 176.988 80.32C177.236 79.864 177.568 79.516 177.984 79.276C178.4 79.036 178.856 78.916 179.352 78.916C179.736 78.916 180.056 78.964 180.312 79.06C180.576 79.156 180.792 79.28 180.96 79.432C181.128 79.576 181.256 79.728 181.344 79.888H181.536V76.6H182.772V85H181.56V84.16H181.368C181.216 84.416 180.984 84.648 180.672 84.856C180.368 85.064 179.928 85.168 179.352 85.168ZM179.7 84.088C180.236 84.088 180.676 83.916 181.02 83.572C181.372 83.228 181.548 82.736 181.548 82.096V81.988C181.548 81.356 181.376 80.868 181.032 80.524C180.688 80.18 180.244 80.008 179.7 80.008C179.172 80.008 178.732 80.18 178.38 80.524C178.036 80.868 177.864 81.356 177.864 81.988V82.096C177.864 82.736 178.036 83.228 178.38 83.572C178.732 83.916 179.172 84.088 179.7 84.088ZM187.304 85.168C186.704 85.168 186.18 85.044 185.732 84.796C185.284 84.54 184.932 84.184 184.676 83.728C184.428 83.264 184.304 82.728 184.304 82.12V81.976C184.304 81.36 184.428 80.824 184.676 80.368C184.924 79.904 185.268 79.548 185.708 79.3C186.156 79.044 186.672 78.916 187.256 78.916C187.824 78.916 188.32 79.044 188.744 79.3C189.176 79.548 189.512 79.896 189.752 80.344C189.992 80.792 190.112 81.316 190.112 81.916V82.384H185.564C185.58 82.904 185.752 83.32 186.08 83.632C186.416 83.936 186.832 84.088 187.328 84.088C187.792 84.088 188.14 83.984 188.372 83.776C188.612 83.568 188.796 83.328 188.924 83.056L189.944 83.584C189.832 83.808 189.668 84.044 189.452 84.292C189.244 84.54 188.968 84.748 188.624 84.916C188.28 85.084 187.84 85.168 187.304 85.168ZM185.576 81.436H188.852C188.82 80.988 188.66 80.64 188.372 80.392C188.084 80.136 187.708 80.008 187.244 80.008C186.78 80.008 186.4 80.136 186.104 80.392C185.816 80.64 185.64 80.988 185.576 81.436ZM194.024 85.168C193.272 85.168 192.648 85 192.152 84.664C191.656 84.328 191.352 83.82 191.24 83.14L192.392 82.864C192.456 83.192 192.564 83.452 192.716 83.644C192.868 83.836 193.056 83.972 193.28 84.052C193.512 84.132 193.76 84.172 194.024 84.172C194.416 84.172 194.716 84.096 194.924 83.944C195.14 83.792 195.248 83.596 195.248 83.356C195.248 83.116 195.148 82.94 194.948 82.828C194.748 82.716 194.452 82.624 194.06 82.552L193.652 82.48C193.252 82.408 192.888 82.304 192.56 82.168C192.232 82.032 191.972 81.844 191.78 81.604C191.588 81.364 191.492 81.056 191.492 80.68C191.492 80.12 191.7 79.688 192.116 79.384C192.532 79.072 193.084 78.916 193.771 78.916C194.436 78.916 194.98 79.068 195.404 79.372C195.836 79.668 196.116 80.072 196.244 80.584L195.092 80.908C195.02 80.548 194.868 80.296 194.636 80.152C194.404 80 194.116 79.924 193.771 79.924C193.436 79.924 193.172 79.988 192.98 80.116C192.788 80.236 192.692 80.408 192.692 80.632C192.692 80.872 192.784 81.048 192.968 81.16C193.16 81.272 193.416 81.356 193.736 81.412L194.156 81.484C194.58 81.556 194.968 81.656 195.32 81.784C195.672 81.912 195.948 82.096 196.148 82.336C196.356 82.576 196.46 82.896 196.46 83.296C196.46 83.888 196.24 84.348 195.8 84.676C195.36 85.004 194.768 85.168 194.024 85.168ZM198.648 85.168C198.368 85.168 198.132 85.076 197.94 84.892C197.756 84.708 197.664 84.472 197.664 84.184C197.664 83.896 197.756 83.664 197.94 83.488C198.132 83.304 198.368 83.212 198.648 83.212C198.928 83.212 199.16 83.304 199.344 83.488C199.536 83.672 199.632 83.904 199.632 84.184C199.632 84.472 199.536 84.708 199.344 84.892C199.16 85.076 198.928 85.168 198.648 85.168ZM198.648 80.884C198.368 80.884 198.132 80.792 197.94 80.608C197.756 80.424 197.664 80.188 197.664 79.9C197.664 79.612 197.756 79.38 197.94 79.204C198.132 79.02 198.368 78.928 198.648 78.928C198.928 78.928 199.16 79.02 199.344 79.204C199.536 79.388 199.632 79.62 199.632 79.9C199.632 80.188 199.536 80.424 199.344 80.608C199.16 80.792 198.928 80.884 198.648 80.884ZM206.967 85.168C206.343 85.168 205.807 85.064 205.359 84.856C204.911 84.64 204.567 84.34 204.327 83.956C204.087 83.564 203.967 83.108 203.967 82.588H205.251C205.251 83.004 205.387 83.352 205.659 83.632C205.939 83.904 206.375 84.04 206.967 84.04C207.567 84.04 208.027 83.88 208.347 83.56C208.667 83.24 208.827 82.804 208.827 82.252V81.244H208.635C208.499 81.436 208.279 81.62 207.975 81.796C207.671 81.972 207.231 82.06 206.655 82.06C206.167 82.06 205.715 81.952 205.299 81.736C204.883 81.52 204.547 81.212 204.291 80.812C204.043 80.404 203.919 79.92 203.919 79.36V79.216C203.919 78.656 204.047 78.168 204.303 77.752C204.567 77.336 204.931 77.012 205.395 76.78C205.867 76.548 206.407 76.432 207.015 76.432C207.631 76.432 208.167 76.552 208.623 76.792C209.087 77.024 209.447 77.352 209.703 77.776C209.959 78.192 210.087 78.684 210.087 79.252V82.156C210.087 82.812 209.955 83.364 209.691 83.812C209.435 84.26 209.071 84.6 208.599 84.832C208.135 85.056 207.591 85.168 206.967 85.168ZM207.003 81.04C207.371 81.04 207.691 80.968 207.963 80.824C208.235 80.68 208.447 80.484 208.599 80.236C208.751 79.98 208.827 79.68 208.827 79.336V79.24C208.827 78.72 208.659 78.312 208.323 78.016C207.995 77.712 207.555 77.56 207.003 77.56C206.451 77.56 206.007 77.712 205.671 78.016C205.343 78.312 205.179 78.72 205.179 79.24V79.336C205.179 79.68 205.251 79.98 205.395 80.236C205.547 80.484 205.759 80.68 206.031 80.824C206.311 80.968 206.635 81.04 207.003 81.04ZM211.569 86.632V85.924H211.977C212.305 85.924 212.469 85.76 212.469 85.432V85.048H212.289C212.009 85.048 211.777 84.964 211.593 84.796C211.409 84.628 211.317 84.416 211.317 84.16C211.317 83.88 211.409 83.656 211.593 83.488C211.777 83.312 212.009 83.224 212.289 83.224C212.569 83.224 212.797 83.316 212.973 83.5C213.157 83.676 213.249 83.908 213.249 84.196V85.444C213.249 86.236 212.853 86.632 212.061 86.632H211.569ZM217.598 85.168C216.95 85.168 216.382 85.072 215.894 84.88C215.414 84.688 215.038 84.412 214.766 84.052C214.502 83.684 214.37 83.256 214.37 82.768V82.636C214.37 82.236 214.446 81.908 214.598 81.652C214.758 81.388 214.95 81.184 215.174 81.04C215.406 80.888 215.622 80.788 215.822 80.74V80.548C215.622 80.492 215.418 80.392 215.21 80.248C215.002 80.096 214.83 79.9 214.694 79.66C214.566 79.412 214.502 79.116 214.502 78.772V78.64C214.502 78.192 214.63 77.804 214.886 77.476C215.15 77.148 215.514 76.892 215.978 76.708C216.442 76.524 216.982 76.432 217.598 76.432C218.206 76.432 218.742 76.524 219.206 76.708C219.67 76.892 220.03 77.148 220.286 77.476C220.55 77.804 220.682 78.192 220.682 78.64V78.772C220.682 79.116 220.614 79.412 220.478 79.66C220.35 79.9 220.186 80.096 219.986 80.248C219.786 80.392 219.582 80.492 219.374 80.548V80.74C219.582 80.788 219.798 80.888 220.022 81.04C220.246 81.184 220.434 81.388 220.586 81.652C220.738 81.908 220.814 82.236 220.814 82.636V82.768C220.814 83.256 220.678 83.684 220.406 84.052C220.142 84.412 219.766 84.688 219.278 84.88C218.798 85.072 218.238 85.168 217.598 85.168ZM217.598 84.04C218.206 84.04 218.682 83.924 219.026 83.692C219.378 83.452 219.554 83.12 219.554 82.696V82.6C219.554 82.168 219.382 81.836 219.038 81.604C218.702 81.364 218.222 81.244 217.598 81.244C216.974 81.244 216.49 81.364 216.146 81.604C215.802 81.836 215.63 82.168 215.63 82.6V82.696C215.63 83.12 215.802 83.452 216.146 83.692C216.498 83.924 216.982 84.04 217.598 84.04ZM217.598 80.116C218.166 80.116 218.61 80.008 218.93 79.792C219.258 79.576 219.422 79.272 219.422 78.88V78.784C219.422 78.392 219.258 78.092 218.93 77.884C218.602 77.668 218.158 77.56 217.598 77.56C217.03 77.56 216.582 77.668 216.254 77.884C215.926 78.092 215.762 78.392 215.762 78.784V78.88C215.762 79.272 215.922 79.576 216.242 79.792C216.57 80.008 217.022 80.116 217.598 80.116ZM224.886 85.168C224.254 85.168 223.706 85.052 223.242 84.82C222.778 84.588 222.418 84.26 222.162 83.836C221.914 83.412 221.79 82.92 221.79 82.36V82.228H223.074V82.348C223.074 82.86 223.23 83.272 223.542 83.584C223.862 83.888 224.306 84.04 224.874 84.04C225.458 84.04 225.91 83.88 226.23 83.56C226.55 83.24 226.71 82.808 226.71 82.264V82.156C226.71 81.636 226.55 81.22 226.23 80.908C225.918 80.596 225.518 80.44 225.03 80.44C224.758 80.44 224.53 80.484 224.346 80.572C224.17 80.652 224.026 80.752 223.914 80.872C223.81 80.992 223.722 81.108 223.65 81.22H222.054V76.6H227.682V77.74H223.314V80.212H223.506C223.586 80.076 223.698 79.948 223.842 79.828C223.994 79.7 224.19 79.596 224.43 79.516C224.67 79.436 224.958 79.396 225.294 79.396C225.79 79.396 226.238 79.504 226.638 79.72C227.046 79.928 227.37 80.24 227.61 80.656C227.85 81.064 227.97 81.56 227.97 82.144V82.276C227.97 82.86 227.846 83.368 227.598 83.8C227.35 84.232 226.994 84.568 226.53 84.808C226.074 85.048 225.526 85.168 224.886 85.168ZM232.309 85.168C231.333 85.168 230.553 84.892 229.969 84.34C229.393 83.78 229.105 82.94 229.105 81.82V79.78C229.105 78.684 229.393 77.852 229.969 77.284C230.553 76.716 231.333 76.432 232.309 76.432C233.293 76.432 234.073 76.716 234.649 77.284C235.233 77.852 235.525 78.684 235.525 79.78V81.82C235.525 82.94 235.233 83.78 234.649 84.34C234.073 84.892 233.293 85.168 232.309 85.168ZM232.309 84.04C232.973 84.04 233.465 83.852 233.785 83.476C234.105 83.092 234.265 82.556 234.265 81.868V79.708C234.265 79.02 234.093 78.492 233.749 78.124C233.405 77.748 232.925 77.56 232.309 77.56C231.685 77.56 231.205 77.752 230.869 78.136C230.533 78.512 230.365 79.036 230.365 79.708V81.868C230.365 82.572 230.525 83.112 230.845 83.488C231.173 83.856 231.661 84.04 232.309 84.04Z" fill="#0C0D21"/>
<defs>
<linearGradient id="paint0_linear_1375_157495" x1="185" y1="99" x2="185" y2="277.331" gradientUnits="userSpaceOnUse">
<stop stop-color="#CCCCFE"/>
<stop offset="0.986909" stop-color="#E1DFEB" stop-opacity="0"/>
</linearGradient>
</defs>
</svg>
