<svg width="634" height="338" viewBox="0 0 634 338" fill="none" xmlns="http://www.w3.org/2000/svg">
<rect width="634" height="338" rx="12" fill="white"/>
<path d="M50.4277 45V37.248H50.2478L48.6158 40.236H47.5598L49.5638 36.6H51.3998V45H50.4277ZM55.9834 45.168C55.3674 45.168 54.8354 45.052 54.3874 44.82C53.9394 44.58 53.5914 44.252 53.3434 43.836C53.0954 43.412 52.9714 42.924 52.9714 42.372V42.228H53.9434V42.336C53.9434 42.968 54.1274 43.452 54.4954 43.788C54.8634 44.124 55.3514 44.292 55.9594 44.292C56.5994 44.292 57.0994 44.112 57.4594 43.752C57.8194 43.392 57.9994 42.9 57.9994 42.276V42.168C57.9994 41.568 57.8234 41.092 57.4714 40.74C57.1274 40.38 56.6794 40.2 56.1274 40.2C55.8074 40.2 55.5434 40.252 55.3354 40.356C55.1274 40.452 54.9634 40.576 54.8434 40.728C54.7234 40.872 54.6234 41.012 54.5434 41.148H53.2234V36.6H58.7434V37.476H54.1954V40.38H54.3634C54.4514 40.22 54.5714 40.064 54.7234 39.912C54.8834 39.76 55.0954 39.632 55.3594 39.528C55.6234 39.424 55.9514 39.372 56.3434 39.372C56.8314 39.372 57.2714 39.484 57.6634 39.708C58.0634 39.932 58.3794 40.252 58.6114 40.668C58.8514 41.084 58.9714 41.58 58.9714 42.156V42.288C58.9714 42.856 58.8514 43.356 58.6114 43.788C58.3714 44.22 58.0274 44.56 57.5794 44.808C57.1314 45.048 56.5994 45.168 55.9834 45.168ZM60.539 45V36.6H61.487V41.544H61.655L64.343 39.132H65.663L62.411 41.988L65.759 45H64.451L61.655 42.444H61.487V45H60.539Z" fill="#9C9BB3"/>
<line x1="74" y1="40.5" x2="614" y2="40.5" stroke="#F2F3F7"/>
<path d="M49.9238 127V119.248H49.7438L48.1118 122.236H47.0558L49.0598 118.6H50.8958V127H49.9238ZM55.6955 127.168C54.7435 127.168 53.9835 126.888 53.4155 126.328C52.8555 125.76 52.5755 124.912 52.5755 123.784V121.816C52.5755 120.696 52.8555 119.852 53.4155 119.284C53.9835 118.716 54.7435 118.432 55.6955 118.432C56.6555 118.432 57.4155 118.716 57.9755 119.284C58.5435 119.852 58.8275 120.696 58.8275 121.816V123.784C58.8275 124.912 58.5435 125.76 57.9755 126.328C57.4155 126.888 56.6555 127.168 55.6955 127.168ZM55.6955 126.292C56.4155 126.292 56.9555 126.076 57.3155 125.644C57.6755 125.212 57.8555 124.608 57.8555 123.832V121.756C57.8555 120.98 57.6715 120.38 57.3035 119.956C56.9355 119.524 56.3995 119.308 55.6955 119.308C54.9915 119.308 54.4555 119.524 54.0875 119.956C53.7275 120.388 53.5475 120.988 53.5475 121.756V123.832C53.5475 124.616 53.7275 125.224 54.0875 125.656C54.4475 126.08 54.9835 126.292 55.6955 126.292ZM60.539 127V118.6H61.487V123.544H61.655L64.343 121.132H65.663L62.411 123.988L65.759 127H64.451L61.655 124.444H61.487V127H60.539Z" fill="#9C9BB3"/>
<line x1="74" y1="122.5" x2="614" y2="122.5" stroke="#F2F3F7"/>
<path d="M55.9834 209.168C55.3674 209.168 54.8354 209.052 54.3874 208.82C53.9394 208.58 53.5914 208.252 53.3434 207.836C53.0954 207.412 52.9714 206.924 52.9714 206.372V206.228H53.9434V206.336C53.9434 206.968 54.1274 207.452 54.4954 207.788C54.8634 208.124 55.3514 208.292 55.9594 208.292C56.5994 208.292 57.0994 208.112 57.4594 207.752C57.8194 207.392 57.9994 206.9 57.9994 206.276V206.168C57.9994 205.568 57.8234 205.092 57.4714 204.74C57.1274 204.38 56.6794 204.2 56.1274 204.2C55.8074 204.2 55.5434 204.252 55.3354 204.356C55.1274 204.452 54.9634 204.576 54.8434 204.728C54.7234 204.872 54.6234 205.012 54.5434 205.148H53.2234V200.6H58.7434V201.476H54.1954V204.38H54.3634C54.4514 204.22 54.5714 204.064 54.7234 203.912C54.8834 203.76 55.0954 203.632 55.3594 203.528C55.6234 203.424 55.9514 203.372 56.3434 203.372C56.8314 203.372 57.2714 203.484 57.6634 203.708C58.0634 203.932 58.3794 204.252 58.6114 204.668C58.8514 205.084 58.9714 205.58 58.9714 206.156V206.288C58.9714 206.856 58.8514 207.356 58.6114 207.788C58.3714 208.22 58.0274 208.56 57.5794 208.808C57.1314 209.048 56.5994 209.168 55.9834 209.168ZM60.539 209V200.6H61.487V205.544H61.655L64.343 203.132H65.663L62.411 205.988L65.759 209H64.451L61.655 206.444H61.487V209H60.539Z" fill="#9C9BB3"/>
<line x1="74" y1="204.5" x2="614" y2="204.5" stroke="#F2F3F7"/>
<path d="M55.6955 291.168C54.7435 291.168 53.9835 290.888 53.4155 290.328C52.8555 289.76 52.5755 288.912 52.5755 287.784V285.816C52.5755 284.696 52.8555 283.852 53.4155 283.284C53.9835 282.716 54.7435 282.432 55.6955 282.432C56.6555 282.432 57.4155 282.716 57.9755 283.284C58.5435 283.852 58.8275 284.696 58.8275 285.816V287.784C58.8275 288.912 58.5435 289.76 57.9755 290.328C57.4155 290.888 56.6555 291.168 55.6955 291.168ZM55.6955 290.292C56.4155 290.292 56.9555 290.076 57.3155 289.644C57.6755 289.212 57.8555 288.608 57.8555 287.832V285.756C57.8555 284.98 57.6715 284.38 57.3035 283.956C56.9355 283.524 56.3995 283.308 55.6955 283.308C54.9915 283.308 54.4555 283.524 54.0875 283.956C53.7275 284.388 53.5475 284.988 53.5475 285.756V287.832C53.5475 288.616 53.7275 289.224 54.0875 289.656C54.4475 290.08 54.9835 290.292 55.6955 290.292ZM60.539 291V282.6H61.487V287.544H61.655L64.343 285.132H65.663L62.411 287.988L65.759 291H64.451L61.655 288.444H61.487V291H60.539Z" fill="#9C9BB3"/>
<line x1="74" y1="286.5" x2="614" y2="286.5" stroke="#F2F3F7"/>
<path d="M104.46 309V300.6H106.38L108.612 308.364H108.768L111 300.6H112.92V309H111.948V301.26H111.78L109.56 309H107.82L105.6 301.26H105.432V309H104.46ZM116.679 309.168C116.271 309.168 115.899 309.096 115.563 308.952C115.227 308.808 114.963 308.6 114.771 308.328C114.579 308.056 114.483 307.724 114.483 307.332C114.483 306.932 114.579 306.604 114.771 306.348C114.963 306.084 115.227 305.888 115.563 305.76C115.899 305.624 116.275 305.556 116.691 305.556H118.671V305.124C118.671 304.708 118.547 304.38 118.299 304.14C118.059 303.9 117.699 303.78 117.219 303.78C116.747 303.78 116.379 303.896 116.115 304.128C115.851 304.352 115.671 304.656 115.575 305.04L114.687 304.752C114.783 304.424 114.935 304.128 115.143 303.864C115.351 303.592 115.627 303.376 115.971 303.216C116.323 303.048 116.743 302.964 117.231 302.964C117.983 302.964 118.567 303.16 118.983 303.552C119.399 303.936 119.607 304.48 119.607 305.184V307.836C119.607 308.076 119.719 308.196 119.943 308.196H120.483V309H119.655C119.391 309 119.179 308.928 119.019 308.784C118.859 308.632 118.779 308.432 118.779 308.184V308.124H118.635C118.547 308.276 118.427 308.436 118.275 308.604C118.131 308.764 117.931 308.896 117.675 309C117.419 309.112 117.087 309.168 116.679 309.168ZM116.787 308.352C117.347 308.352 117.799 308.188 118.143 307.86C118.495 307.524 118.671 307.056 118.671 306.456V306.324H116.727C116.351 306.324 116.039 306.408 115.791 306.576C115.551 306.736 115.431 306.98 115.431 307.308C115.431 307.636 115.555 307.892 115.803 308.076C116.059 308.26 116.387 308.352 116.787 308.352ZM122.337 311.4V310.56H125.697C125.929 310.56 126.045 310.44 126.045 310.2V308.064H125.877C125.797 308.232 125.673 308.4 125.505 308.568C125.345 308.728 125.133 308.86 124.869 308.964C124.605 309.06 124.273 309.108 123.873 309.108C123.449 309.108 123.057 309.016 122.697 308.832C122.345 308.648 122.065 308.376 121.857 308.016C121.657 307.656 121.557 307.216 121.557 306.696V303.132H122.505V306.624C122.505 307.2 122.649 307.62 122.937 307.884C123.233 308.148 123.629 308.28 124.125 308.28C124.685 308.28 125.145 308.096 125.505 307.728C125.865 307.36 126.045 306.812 126.045 306.084V303.132H126.993V310.368C126.993 310.688 126.901 310.94 126.717 311.124C126.541 311.308 126.281 311.4 125.937 311.4H122.337ZM132.887 309V308.7C132.887 308.42 132.911 308.184 132.959 307.992C133.007 307.8 133.099 307.572 133.235 307.308L136.439 301.608V301.476H131.447V300.6H137.459V301.752L134.111 307.752C134.015 307.92 133.947 308.072 133.907 308.208C133.875 308.344 133.859 308.516 133.859 308.724V309H132.887Z" fill="#9C9BB3"/>
<path d="M209.46 309V300.6H211.38L213.612 308.364H213.768L216 300.6H217.92V309H216.948V301.26H216.78L214.56 309H212.82L210.6 301.26H210.432V309H209.46ZM221.679 309.168C221.271 309.168 220.899 309.096 220.563 308.952C220.227 308.808 219.963 308.6 219.771 308.328C219.579 308.056 219.483 307.724 219.483 307.332C219.483 306.932 219.579 306.604 219.771 306.348C219.963 306.084 220.227 305.888 220.563 305.76C220.899 305.624 221.275 305.556 221.691 305.556H223.671V305.124C223.671 304.708 223.547 304.38 223.299 304.14C223.059 303.9 222.699 303.78 222.219 303.78C221.747 303.78 221.379 303.896 221.115 304.128C220.851 304.352 220.671 304.656 220.575 305.04L219.687 304.752C219.783 304.424 219.935 304.128 220.143 303.864C220.351 303.592 220.627 303.376 220.971 303.216C221.323 303.048 221.743 302.964 222.231 302.964C222.983 302.964 223.567 303.16 223.983 303.552C224.399 303.936 224.607 304.48 224.607 305.184V307.836C224.607 308.076 224.719 308.196 224.943 308.196H225.483V309H224.655C224.391 309 224.179 308.928 224.019 308.784C223.859 308.632 223.779 308.432 223.779 308.184V308.124H223.635C223.547 308.276 223.427 308.436 223.275 308.604C223.131 308.764 222.931 308.896 222.675 309C222.419 309.112 222.087 309.168 221.679 309.168ZM221.787 308.352C222.347 308.352 222.799 308.188 223.143 307.86C223.495 307.524 223.671 307.056 223.671 306.456V306.324H221.727C221.351 306.324 221.039 306.408 220.791 306.576C220.551 306.736 220.431 306.98 220.431 307.308C220.431 307.636 220.555 307.892 220.803 308.076C221.059 308.26 221.387 308.352 221.787 308.352ZM227.337 311.4V310.56H230.697C230.929 310.56 231.045 310.44 231.045 310.2V308.064H230.877C230.797 308.232 230.673 308.4 230.505 308.568C230.345 308.728 230.133 308.86 229.869 308.964C229.605 309.06 229.273 309.108 228.873 309.108C228.449 309.108 228.057 309.016 227.697 308.832C227.345 308.648 227.065 308.376 226.857 308.016C226.657 307.656 226.557 307.216 226.557 306.696V303.132H227.505V306.624C227.505 307.2 227.649 307.62 227.937 307.884C228.233 308.148 228.629 308.28 229.125 308.28C229.685 308.28 230.145 308.096 230.505 307.728C230.865 307.36 231.045 306.812 231.045 306.084V303.132H231.993V310.368C231.993 310.688 231.901 310.94 231.717 311.124C231.541 311.308 231.281 311.4 230.937 311.4H227.337ZM239.146 309V301.248H238.967L237.335 304.236H236.279L238.283 300.6H240.119V309H239.146ZM245.842 309V307.284H241.462V306.132L244.99 300.6H246.814V306.408H248.254V307.284H246.814V309H245.842ZM242.434 306.408H245.842V301.188H245.674L242.434 306.264V306.408Z" fill="#9C9BB3"/>
<path d="M317.96 309V300.6H319.88L322.112 308.364H322.268L324.5 300.6H326.42V309H325.448V301.26H325.28L323.06 309H321.32L319.1 301.26H318.932V309H317.96ZM330.179 309.168C329.771 309.168 329.399 309.096 329.063 308.952C328.727 308.808 328.463 308.6 328.271 308.328C328.079 308.056 327.983 307.724 327.983 307.332C327.983 306.932 328.079 306.604 328.271 306.348C328.463 306.084 328.727 305.888 329.063 305.76C329.399 305.624 329.775 305.556 330.191 305.556H332.171V305.124C332.171 304.708 332.047 304.38 331.799 304.14C331.559 303.9 331.199 303.78 330.719 303.78C330.247 303.78 329.879 303.896 329.615 304.128C329.351 304.352 329.171 304.656 329.075 305.04L328.187 304.752C328.283 304.424 328.435 304.128 328.643 303.864C328.851 303.592 329.127 303.376 329.471 303.216C329.823 303.048 330.243 302.964 330.731 302.964C331.483 302.964 332.067 303.16 332.483 303.552C332.899 303.936 333.107 304.48 333.107 305.184V307.836C333.107 308.076 333.219 308.196 333.443 308.196H333.983V309H333.155C332.891 309 332.679 308.928 332.519 308.784C332.359 308.632 332.279 308.432 332.279 308.184V308.124H332.135C332.047 308.276 331.927 308.436 331.775 308.604C331.631 308.764 331.431 308.896 331.175 309C330.919 309.112 330.587 309.168 330.179 309.168ZM330.287 308.352C330.847 308.352 331.299 308.188 331.643 307.86C331.995 307.524 332.171 307.056 332.171 306.456V306.324H330.227C329.851 306.324 329.539 306.408 329.291 306.576C329.051 306.736 328.931 306.98 328.931 307.308C328.931 307.636 329.055 307.892 329.303 308.076C329.559 308.26 329.887 308.352 330.287 308.352ZM335.837 311.4V310.56H339.197C339.429 310.56 339.545 310.44 339.545 310.2V308.064H339.377C339.297 308.232 339.173 308.4 339.005 308.568C338.845 308.728 338.633 308.86 338.369 308.964C338.105 309.06 337.773 309.108 337.373 309.108C336.949 309.108 336.557 309.016 336.197 308.832C335.845 308.648 335.565 308.376 335.357 308.016C335.157 307.656 335.057 307.216 335.057 306.696V303.132H336.005V306.624C336.005 307.2 336.149 307.62 336.437 307.884C336.733 308.148 337.129 308.28 337.625 308.28C338.185 308.28 338.645 308.096 339.005 307.728C339.365 307.36 339.545 306.812 339.545 306.084V303.132H340.493V310.368C340.493 310.688 340.401 310.94 340.217 311.124C340.041 311.308 339.781 311.4 339.437 311.4H335.837ZM345.199 309V308.124C345.199 307.524 345.303 307.044 345.511 306.684C345.727 306.324 346.023 306.036 346.399 305.82C346.783 305.596 347.239 305.404 347.767 305.244L348.427 305.04C348.787 304.928 349.103 304.792 349.375 304.632C349.647 304.464 349.859 304.256 350.011 304.008C350.163 303.752 350.239 303.44 350.239 303.072V303.024C350.239 302.496 350.055 302.08 349.687 301.776C349.319 301.464 348.847 301.308 348.271 301.308C347.663 301.308 347.167 301.472 346.783 301.8C346.399 302.12 346.207 302.608 346.207 303.264V303.432H345.247V303.276C345.247 302.668 345.379 302.152 345.643 301.728C345.907 301.304 346.267 300.984 346.723 300.768C347.179 300.544 347.695 300.432 348.271 300.432C348.847 300.432 349.355 300.54 349.795 300.756C350.243 300.972 350.591 301.272 350.839 301.656C351.087 302.04 351.211 302.488 351.211 303V303.108C351.211 303.652 351.103 304.104 350.887 304.464C350.671 304.816 350.371 305.104 349.987 305.328C349.611 305.552 349.167 305.744 348.655 305.904L348.007 306.108C347.599 306.236 347.259 306.372 346.987 306.516C346.723 306.652 346.523 306.828 346.387 307.044C346.251 307.26 346.183 307.552 346.183 307.92V308.124H351.139V309H345.199ZM354.877 309V301.248H354.697L353.065 304.236H352.009L354.013 300.6H355.849V309H354.877Z" fill="#9C9BB3"/>
<path d="M424.46 309V300.6H426.38L428.612 308.364H428.768L431 300.6H432.92V309H431.948V301.26H431.78L429.56 309H427.82L425.6 301.26H425.432V309H424.46ZM436.679 309.168C436.271 309.168 435.899 309.096 435.563 308.952C435.227 308.808 434.963 308.6 434.771 308.328C434.579 308.056 434.483 307.724 434.483 307.332C434.483 306.932 434.579 306.604 434.771 306.348C434.963 306.084 435.227 305.888 435.563 305.76C435.899 305.624 436.275 305.556 436.691 305.556H438.671V305.124C438.671 304.708 438.547 304.38 438.299 304.14C438.059 303.9 437.699 303.78 437.219 303.78C436.747 303.78 436.379 303.896 436.115 304.128C435.851 304.352 435.671 304.656 435.575 305.04L434.687 304.752C434.783 304.424 434.935 304.128 435.143 303.864C435.351 303.592 435.627 303.376 435.971 303.216C436.323 303.048 436.743 302.964 437.231 302.964C437.983 302.964 438.567 303.16 438.983 303.552C439.399 303.936 439.607 304.48 439.607 305.184V307.836C439.607 308.076 439.719 308.196 439.943 308.196H440.483V309H439.655C439.391 309 439.179 308.928 439.019 308.784C438.859 308.632 438.779 308.432 438.779 308.184V308.124H438.635C438.547 308.276 438.427 308.436 438.275 308.604C438.131 308.764 437.931 308.896 437.675 309C437.419 309.112 437.087 309.168 436.679 309.168ZM436.787 308.352C437.347 308.352 437.799 308.188 438.143 307.86C438.495 307.524 438.671 307.056 438.671 306.456V306.324H436.727C436.351 306.324 436.039 306.408 435.791 306.576C435.551 306.736 435.431 306.98 435.431 307.308C435.431 307.636 435.555 307.892 435.803 308.076C436.059 308.26 436.387 308.352 436.787 308.352ZM442.337 311.4V310.56H445.697C445.929 310.56 446.045 310.44 446.045 310.2V308.064H445.877C445.797 308.232 445.673 308.4 445.505 308.568C445.345 308.728 445.133 308.86 444.869 308.964C444.605 309.06 444.273 309.108 443.873 309.108C443.449 309.108 443.057 309.016 442.697 308.832C442.345 308.648 442.065 308.376 441.857 308.016C441.657 307.656 441.557 307.216 441.557 306.696V303.132H442.505V306.624C442.505 307.2 442.649 307.62 442.937 307.884C443.233 308.148 443.629 308.28 444.125 308.28C444.685 308.28 445.145 308.096 445.505 307.728C445.865 307.36 446.045 306.812 446.045 306.084V303.132H446.993V310.368C446.993 310.688 446.901 310.94 446.717 311.124C446.541 311.308 446.281 311.4 445.937 311.4H442.337ZM451.699 309V308.124C451.699 307.524 451.803 307.044 452.011 306.684C452.227 306.324 452.523 306.036 452.899 305.82C453.283 305.596 453.739 305.404 454.267 305.244L454.927 305.04C455.287 304.928 455.603 304.792 455.875 304.632C456.147 304.464 456.359 304.256 456.511 304.008C456.663 303.752 456.739 303.44 456.739 303.072V303.024C456.739 302.496 456.555 302.08 456.187 301.776C455.819 301.464 455.347 301.308 454.771 301.308C454.163 301.308 453.667 301.472 453.283 301.8C452.899 302.12 452.707 302.608 452.707 303.264V303.432H451.747V303.276C451.747 302.668 451.879 302.152 452.143 301.728C452.407 301.304 452.767 300.984 453.223 300.768C453.679 300.544 454.195 300.432 454.771 300.432C455.347 300.432 455.855 300.54 456.295 300.756C456.743 300.972 457.091 301.272 457.339 301.656C457.587 302.04 457.711 302.488 457.711 303V303.108C457.711 303.652 457.603 304.104 457.387 304.464C457.171 304.816 456.871 305.104 456.487 305.328C456.111 305.552 455.667 305.744 455.155 305.904L454.507 306.108C454.099 306.236 453.759 306.372 453.487 306.516C453.223 306.652 453.023 306.828 452.887 307.044C452.751 307.26 452.683 307.552 452.683 307.92V308.124H457.639V309H451.699ZM462.025 309.168C461.377 309.168 460.813 309.072 460.333 308.88C459.861 308.68 459.493 308.404 459.229 308.052C458.973 307.692 458.845 307.272 458.845 306.792V306.66C458.845 306.244 458.933 305.9 459.109 305.628C459.285 305.356 459.497 305.148 459.745 305.004C460.001 304.852 460.237 304.756 460.453 304.716V304.56C460.237 304.496 460.013 304.392 459.781 304.248C459.557 304.104 459.369 303.908 459.217 303.66C459.073 303.412 459.001 303.108 459.001 302.748V302.616C459.001 302.16 459.129 301.772 459.385 301.452C459.649 301.124 460.009 300.872 460.465 300.696C460.921 300.52 461.441 300.432 462.025 300.432C462.617 300.432 463.137 300.52 463.585 300.696C464.041 300.872 464.397 301.124 464.653 301.452C464.917 301.772 465.049 302.16 465.049 302.616V302.748C465.049 303.108 464.977 303.412 464.833 303.66C464.689 303.908 464.505 304.104 464.281 304.248C464.057 304.392 463.833 304.496 463.609 304.56V304.716C463.833 304.756 464.069 304.852 464.317 305.004C464.565 305.148 464.773 305.356 464.941 305.628C465.117 305.9 465.205 306.244 465.205 306.66V306.792C465.205 307.272 465.077 307.692 464.821 308.052C464.565 308.404 464.197 308.68 463.717 308.88C463.245 309.072 462.681 309.168 462.025 309.168ZM462.025 308.292C462.705 308.292 463.241 308.16 463.633 307.896C464.033 307.632 464.233 307.248 464.233 306.744V306.648C464.233 306.144 464.037 305.76 463.645 305.496C463.253 305.232 462.713 305.1 462.025 305.1C461.345 305.1 460.809 305.232 460.417 305.496C460.025 305.76 459.829 306.144 459.829 306.648V306.744C459.829 307.248 460.025 307.632 460.417 307.896C460.817 308.16 461.353 308.292 462.025 308.292ZM462.025 304.224C462.665 304.224 463.165 304.104 463.525 303.864C463.893 303.616 464.077 303.268 464.077 302.82V302.724C464.077 302.268 463.893 301.92 463.525 301.68C463.157 301.432 462.657 301.308 462.025 301.308C461.393 301.308 460.893 301.432 460.525 301.68C460.157 301.92 459.973 302.268 459.973 302.724V302.82C459.973 303.268 460.157 303.616 460.525 303.864C460.893 304.104 461.393 304.224 462.025 304.224Z" fill="#9C9BB3"/>
<path d="M539.656 309.168C538.832 309.168 538.18 308.936 537.7 308.472C537.228 308.008 536.992 307.344 536.992 306.48V305.832H537.988V306.48C537.988 307 538.124 307.424 538.396 307.752C538.676 308.08 539.092 308.244 539.644 308.244C540.204 308.244 540.6 308.084 540.832 307.764C541.064 307.436 541.18 307.008 541.18 306.48V301.512H539.704V300.6H543.1V301.512H542.188V306.48C542.188 307.352 541.972 308.02 541.54 308.484C541.108 308.94 540.48 309.168 539.656 309.168ZM546.56 309.108C546.136 309.108 545.744 309.016 545.384 308.832C545.032 308.648 544.752 308.376 544.544 308.016C544.344 307.648 544.244 307.204 544.244 306.684V303.132H545.192V306.612C545.192 307.196 545.336 307.62 545.624 307.884C545.92 308.148 546.316 308.28 546.812 308.28C547.372 308.28 547.832 308.096 548.192 307.728C548.552 307.36 548.732 306.812 548.732 306.084V303.132H549.68V309H548.756V308.004H548.588C548.46 308.284 548.24 308.54 547.928 308.772C547.616 308.996 547.16 309.108 546.56 309.108ZM551.664 309V303.132H552.588V304.128H552.756C552.884 303.848 553.1 303.596 553.404 303.372C553.716 303.14 554.172 303.024 554.772 303.024C555.212 303.024 555.604 303.116 555.948 303.3C556.3 303.484 556.58 303.756 556.788 304.116C556.996 304.476 557.1 304.92 557.1 305.448V309H556.152V305.52C556.152 304.936 556.004 304.512 555.708 304.248C555.42 303.984 555.028 303.852 554.532 303.852C553.964 303.852 553.5 304.036 553.14 304.404C552.788 304.772 552.612 305.32 552.612 306.048V309H551.664ZM565.873 309V307.284H561.493V306.132L565.021 300.6H566.845V306.408H568.285V307.284H566.845V309H565.873ZM562.465 306.408H565.873V301.188H565.705L562.465 306.264V306.408Z" fill="#9C9BB3"/>
<path d="M19 148.12H11.776V150.7H10.6V144.244H11.776V146.824H19V148.12ZM19.168 141.421C19.168 142.013 19.048 142.541 18.808 143.005C18.56 143.461 18.208 143.821 17.752 144.085C17.296 144.349 16.756 144.481 16.132 144.481H15.952C15.328 144.481 14.792 144.349 14.344 144.085C13.888 143.821 13.536 143.461 13.288 143.005C13.04 142.541 12.916 142.013 12.916 141.421C12.916 140.829 13.04 140.301 13.288 139.837C13.536 139.373 13.888 139.009 14.344 138.745C14.792 138.481 15.328 138.349 15.952 138.349H16.132C16.756 138.349 17.296 138.481 17.752 138.745C18.208 139.009 18.56 139.373 18.808 139.837C19.048 140.301 19.168 140.829 19.168 141.421ZM18.064 141.421C18.064 140.877 17.892 140.437 17.548 140.101C17.196 139.757 16.712 139.585 16.096 139.585H15.988C15.372 139.585 14.892 139.753 14.548 140.089C14.196 140.425 14.02 140.869 14.02 141.421C14.02 141.957 14.196 142.397 14.548 142.741C14.892 143.077 15.372 143.245 15.988 143.245H16.096C16.712 143.245 17.196 143.077 17.548 142.741C17.892 142.397 18.064 141.957 18.064 141.421ZM19 134.802C19 135.162 18.892 135.45 18.676 135.666C18.46 135.874 18.172 135.978 17.812 135.978H14.128L14.128 137.61H13.084V135.978H11.128V134.742H13.084V132.978H14.128V134.742H17.596C17.836 134.742 17.956 134.63 17.956 134.406V133.17H19V134.802ZM19.168 129.701C19.168 130.125 19.096 130.505 18.952 130.841C18.808 131.169 18.596 131.433 18.316 131.633C18.036 131.825 17.696 131.921 17.296 131.921C16.888 131.921 16.552 131.825 16.288 131.633C16.016 131.433 15.812 131.165 15.676 130.829C15.54 130.485 15.472 130.097 15.472 129.665V127.865H15.088C14.744 127.865 14.468 127.969 14.26 128.177C14.052 128.385 13.948 128.705 13.948 129.137C13.948 129.561 14.048 129.885 14.248 130.109C14.448 130.333 14.708 130.481 15.028 130.553L14.656 131.705C14.336 131.609 14.048 131.457 13.792 131.249C13.528 131.033 13.316 130.749 13.156 130.397C12.996 130.045 12.916 129.621 12.916 129.125C12.916 128.357 13.112 127.753 13.504 127.313C13.896 126.873 14.452 126.653 15.172 126.653H17.608C17.848 126.653 17.968 126.541 17.968 126.317V125.813H19V126.737C19 127.017 18.928 127.245 18.784 127.421C18.64 127.597 18.444 127.685 18.196 127.685H18.16V127.865C18.28 127.929 18.42 128.025 18.58 128.153C18.74 128.281 18.88 128.469 19 128.717C19.112 128.965 19.168 129.293 19.168 129.701ZM18.148 129.521C18.148 129.025 18.008 128.625 17.728 128.321C17.44 128.017 17.048 127.865 16.552 127.865H16.432V129.593C16.432 129.921 16.504 130.185 16.648 130.385C16.784 130.585 16.988 130.685 17.26 130.685C17.532 130.685 17.748 130.581 17.908 130.373C18.068 130.165 18.148 129.881 18.148 129.521ZM19 124.611H10.6V123.375H19V124.611ZM19 118.519H10.6V116.023L18.136 113.743V113.551H10.6V112.267H19V114.763L11.452 117.043V117.235H19V118.519ZM19.168 107.707C19.168 108.299 19.048 108.827 18.808 109.291C18.56 109.747 18.208 110.107 17.752 110.371C17.296 110.635 16.756 110.767 16.132 110.767H15.952C15.328 110.767 14.792 110.635 14.344 110.371C13.888 110.107 13.536 109.747 13.288 109.291C13.04 108.827 12.916 108.299 12.916 107.707C12.916 107.115 13.04 106.587 13.288 106.123C13.536 105.659 13.888 105.295 14.344 105.031C14.792 104.767 15.328 104.635 15.952 104.635H16.132C16.756 104.635 17.296 104.767 17.752 105.031C18.208 105.295 18.56 105.659 18.808 106.123C19.048 106.587 19.168 107.115 19.168 107.707ZM18.064 107.707C18.064 107.163 17.892 106.723 17.548 106.387C17.196 106.043 16.712 105.871 16.096 105.871H15.988C15.372 105.871 14.892 106.039 14.548 106.375C14.196 106.711 14.02 107.155 14.02 107.707C14.02 108.243 14.196 108.683 14.548 109.027C14.892 109.363 15.372 109.531 15.988 109.531H16.096C16.712 109.531 17.196 109.363 17.548 109.027C17.892 108.683 18.064 108.243 18.064 107.707ZM19.168 100.648C19.168 101.136 19.048 101.588 18.808 102.004C18.568 102.42 18.224 102.756 17.776 103.012C17.32 103.26 16.772 103.384 16.132 103.384H15.952C15.32 103.384 14.776 103.26 14.32 103.012C13.864 102.764 13.516 102.432 13.276 102.016C13.036 101.6 12.916 101.144 12.916 100.648C12.916 100.264 12.964 99.9438 13.06 99.6878C13.156 99.4238 13.28 99.2078 13.432 99.0398C13.576 98.8718 13.728 98.7438 13.888 98.6558V98.4638H10.6V97.2278H19V98.4398H18.16V98.6318C18.416 98.7838 18.648 99.0158 18.856 99.3278C19.064 99.6318 19.168 100.072 19.168 100.648ZM18.088 100.3C18.088 99.7638 17.916 99.3238 17.572 98.9798C17.228 98.6278 16.736 98.4518 16.096 98.4518H15.988C15.356 98.4518 14.868 98.6238 14.524 98.9678C14.18 99.3118 14.008 99.7558 14.008 100.3C14.008 100.828 14.18 101.268 14.524 101.62C14.868 101.964 15.356 102.136 15.988 102.136H16.096C16.736 102.136 17.228 101.964 17.572 101.62C17.916 101.268 18.088 100.828 18.088 100.3ZM19.168 92.6963C19.168 93.2963 19.044 93.8203 18.796 94.2683C18.54 94.7163 18.184 95.0683 17.728 95.3243C17.264 95.5723 16.728 95.6963 16.12 95.6963H15.976C15.36 95.6963 14.824 95.5723 14.368 95.3243C13.904 95.0763 13.548 94.7323 13.3 94.2923C13.044 93.8443 12.916 93.3283 12.916 92.7443C12.916 92.1763 13.044 91.6803 13.3 91.2563C13.548 90.8243 13.896 90.4883 14.344 90.2483C14.792 90.0083 15.316 89.8883 15.916 89.8883H16.384V94.4363C16.904 94.4203 17.32 94.2483 17.632 93.9203C17.936 93.5843 18.088 93.1683 18.088 92.6723C18.088 92.2083 17.984 91.8603 17.776 91.6283C17.568 91.3883 17.328 91.2043 17.056 91.0763L17.584 90.0563C17.808 90.1683 18.044 90.3323 18.292 90.5483C18.54 90.7563 18.748 91.0323 18.916 91.3763C19.084 91.7203 19.168 92.1603 19.168 92.6963ZM15.436 94.4243V91.1483C14.988 91.1803 14.64 91.3403 14.392 91.6283C14.136 91.9163 14.008 92.2923 14.008 92.7563C14.008 93.2203 14.136 93.6003 14.392 93.8963C14.64 94.1843 14.988 94.3603 15.436 94.4243ZM19.168 85.9765C19.168 86.7285 19 87.3525 18.664 87.8485C18.328 88.3445 17.82 88.6485 17.14 88.7605L16.864 87.6085C17.192 87.5445 17.452 87.4365 17.644 87.2845C17.836 87.1325 17.972 86.9445 18.052 86.7205C18.132 86.4885 18.172 86.2405 18.172 85.9765C18.172 85.5845 18.096 85.2845 17.944 85.0765C17.792 84.8605 17.596 84.7525 17.356 84.7525C17.116 84.7525 16.94 84.8525 16.828 85.0525C16.716 85.2525 16.624 85.5485 16.552 85.9405L16.48 86.3485C16.408 86.7485 16.304 87.1125 16.168 87.4405C16.032 87.7685 15.844 88.0285 15.604 88.2205C15.364 88.4125 15.056 88.5085 14.68 88.5085C14.12 88.5085 13.688 88.3005 13.384 87.8845C13.072 87.4685 12.916 86.9165 12.916 86.2285C12.916 85.5645 13.068 85.0205 13.372 84.5965C13.668 84.1645 14.072 83.8845 14.584 83.7565L14.908 84.9085C14.548 84.9805 14.296 85.1325 14.152 85.3645C14 85.5965 13.924 85.8845 13.924 86.2285C13.924 86.5645 13.988 86.8285 14.116 87.0205C14.236 87.2125 14.408 87.3085 14.632 87.3085C14.872 87.3085 15.048 87.2165 15.16 87.0325C15.272 86.8405 15.356 86.5845 15.412 86.2645L15.484 85.8445C15.556 85.4205 15.656 85.0325 15.784 84.6805C15.912 84.3285 16.096 84.0525 16.336 83.8525C16.576 83.6445 16.896 83.5405 17.296 83.5405C17.888 83.5405 18.348 83.7605 18.676 84.2005C19.004 84.6405 19.168 85.2325 19.168 85.9765Z" fill="#1E1F31"/>
<path d="M109.017 78.1075L88 67.8599V287H601V72.5896L584.282 75.7427L566.131 45L548.458 59.1889L531.263 82.8371L514.067 64.7068L495.916 90.7199L477.765 270.446L460.57 273.599H442.897L425.701 264.928L407.073 270.446L390.451 251.5L373.159 264.928L354.531 257.834L337.813 82.0489L320.14 57.6124L302.466 50.5179L284.793 67.8599L266.642 71.013H250.402H232.251L214.101 85.202L196.905 78.1075L178.754 85.202H161.559L143.885 82.0489L126.212 78.1075H109.017Z" fill="url(#paint0_linear_1382_188268)"/>
<path d="M88 68.2L109.017 78.6H126.212L143.885 82.6L161.559 85.8H178.754L196.905 78.6L214.101 85.8L232.251 71.4H250.402H266.642L284.793 68.2L302.466 50.6L320.14 57.8L337.813 82.6L354.531 261L373.159 268.2L389.765 251.159L407.073 273.8L425.701 268.2L442.897 277H460.57L477.765 273.8L495.916 91.4L514.067 65L531.263 83.4L548.458 59.4L566.131 45L584.282 76.2L601 73" stroke="#3333FF"/>
<circle cx="321" cy="58" r="3.5" fill="#1E1F31" stroke="#1E1F31"/>
<rect x="333" y="23" width="120" height="44" rx="4" fill="#1E1F31"/>
<path d="M342.024 40V32.512H339.324V31.6H345.732V32.512H343.032V40H342.024ZM348.369 40.108C347.945 40.108 347.553 40.016 347.193 39.832C346.841 39.648 346.561 39.376 346.353 39.016C346.153 38.648 346.053 38.204 346.053 37.684V34.132H347.001V37.612C347.001 38.196 347.145 38.62 347.433 38.884C347.729 39.148 348.125 39.28 348.621 39.28C349.181 39.28 349.641 39.096 350.001 38.728C350.361 38.36 350.541 37.812 350.541 37.084V34.132H351.489V40H350.565V39.004H350.397C350.269 39.284 350.049 39.54 349.737 39.772C349.425 39.996 348.969 40.108 348.369 40.108ZM356.161 40.168C355.569 40.168 355.049 40.044 354.601 39.796C354.153 39.54 353.805 39.184 353.557 38.728C353.309 38.272 353.185 37.744 353.185 37.144V37C353.185 36.392 353.309 35.86 353.557 35.404C353.805 34.948 354.149 34.596 354.589 34.348C355.029 34.092 355.533 33.964 356.101 33.964C356.653 33.964 357.141 34.084 357.565 34.324C357.989 34.556 358.321 34.892 358.561 35.332C358.801 35.772 358.921 36.288 358.921 36.88V37.312H354.133C354.157 37.944 354.361 38.44 354.745 38.8C355.129 39.152 355.609 39.328 356.185 39.328C356.689 39.328 357.077 39.212 357.349 38.98C357.621 38.748 357.829 38.472 357.973 38.152L358.789 38.548C358.669 38.796 358.501 39.044 358.285 39.292C358.077 39.54 357.801 39.748 357.457 39.916C357.121 40.084 356.689 40.168 356.161 40.168ZM354.145 36.532H357.961C357.929 35.988 357.741 35.564 357.397 35.26C357.061 34.956 356.629 34.804 356.101 34.804C355.565 34.804 355.125 34.956 354.781 35.26C354.437 35.564 354.225 35.988 354.145 36.532ZM362.938 40.168C362.21 40.168 361.594 40 361.09 39.664C360.594 39.328 360.294 38.796 360.19 38.068L361.09 37.864C361.154 38.248 361.274 38.552 361.45 38.776C361.626 38.992 361.842 39.148 362.098 39.244C362.362 39.332 362.642 39.376 362.938 39.376C363.378 39.376 363.726 39.288 363.982 39.112C364.238 38.936 364.366 38.7 364.366 38.404C364.366 38.1 364.242 37.888 363.994 37.768C363.754 37.64 363.422 37.536 362.998 37.456L362.506 37.372C362.13 37.308 361.786 37.208 361.474 37.072C361.162 36.936 360.914 36.752 360.73 36.52C360.546 36.288 360.454 35.996 360.454 35.644C360.454 35.116 360.658 34.704 361.066 34.408C361.474 34.112 362.014 33.964 362.686 33.964C363.35 33.964 363.886 34.116 364.294 34.42C364.71 34.716 364.978 35.136 365.098 35.68L364.21 35.908C364.138 35.484 363.966 35.188 363.694 35.02C363.422 34.844 363.086 34.756 362.686 34.756C362.286 34.756 361.97 34.832 361.738 34.984C361.506 35.128 361.39 35.344 361.39 35.632C361.39 35.912 361.498 36.12 361.714 36.256C361.938 36.384 362.234 36.48 362.602 36.544L363.094 36.628C363.51 36.7 363.882 36.8 364.21 36.928C364.546 37.048 364.81 37.224 365.002 37.456C365.202 37.688 365.302 37.992 365.302 38.368C365.302 38.944 365.086 39.388 364.654 39.7C364.23 40.012 363.658 40.168 362.938 40.168ZM369.386 40.168C368.882 40.168 368.418 40.048 367.994 39.808C367.57 39.568 367.234 39.22 366.986 38.764C366.738 38.308 366.614 37.768 366.614 37.144V36.988C366.614 36.364 366.738 35.828 366.986 35.38C367.234 34.924 367.566 34.576 367.982 34.336C368.406 34.088 368.874 33.964 369.386 33.964C369.794 33.964 370.138 34.02 370.418 34.132C370.706 34.236 370.938 34.372 371.114 34.54C371.29 34.7 371.426 34.872 371.522 35.056H371.69V31.6H372.638V40H371.714V39.028H371.546C371.386 39.324 371.138 39.588 370.802 39.82C370.466 40.052 369.994 40.168 369.386 40.168ZM369.638 39.328C370.246 39.328 370.738 39.136 371.114 38.752C371.498 38.36 371.69 37.816 371.69 37.12V37.012C371.69 36.316 371.498 35.776 371.114 35.392C370.738 35 370.246 34.804 369.638 34.804C369.038 34.804 368.542 35 368.15 35.392C367.766 35.776 367.574 36.316 367.574 37.012V37.12C367.574 37.816 367.766 38.36 368.15 38.752C368.542 39.136 369.038 39.328 369.638 39.328ZM376.425 40.168C376.017 40.168 375.645 40.096 375.309 39.952C374.973 39.808 374.709 39.6 374.517 39.328C374.325 39.056 374.229 38.724 374.229 38.332C374.229 37.932 374.325 37.604 374.517 37.348C374.709 37.084 374.973 36.888 375.309 36.76C375.645 36.624 376.021 36.556 376.437 36.556H378.417V36.124C378.417 35.708 378.293 35.38 378.045 35.14C377.805 34.9 377.445 34.78 376.965 34.78C376.493 34.78 376.125 34.896 375.861 35.128C375.597 35.352 375.417 35.656 375.321 36.04L374.433 35.752C374.529 35.424 374.681 35.128 374.889 34.864C375.097 34.592 375.373 34.376 375.717 34.216C376.069 34.048 376.489 33.964 376.977 33.964C377.729 33.964 378.313 34.16 378.729 34.552C379.145 34.936 379.353 35.48 379.353 36.184V38.836C379.353 39.076 379.465 39.196 379.689 39.196H380.229V40H379.401C379.137 40 378.925 39.928 378.765 39.784C378.605 39.632 378.525 39.432 378.525 39.184V39.124H378.381C378.293 39.276 378.173 39.436 378.021 39.604C377.877 39.764 377.677 39.896 377.421 40C377.165 40.112 376.833 40.168 376.425 40.168ZM376.533 39.352C377.093 39.352 377.545 39.188 377.889 38.86C378.241 38.524 378.417 38.056 378.417 37.456V37.324H376.473C376.097 37.324 375.785 37.408 375.537 37.576C375.297 37.736 375.177 37.98 375.177 38.308C375.177 38.636 375.301 38.892 375.549 39.076C375.805 39.26 376.133 39.352 376.533 39.352ZM382.083 42.4V41.56H385.443C385.675 41.56 385.791 41.44 385.791 41.2V39.064H385.623C385.543 39.232 385.419 39.4 385.251 39.568C385.091 39.728 384.879 39.86 384.615 39.964C384.351 40.06 384.019 40.108 383.619 40.108C383.195 40.108 382.803 40.016 382.443 39.832C382.091 39.648 381.811 39.376 381.603 39.016C381.403 38.656 381.303 38.216 381.303 37.696V34.132H382.251V37.624C382.251 38.2 382.395 38.62 382.683 38.884C382.979 39.148 383.375 39.28 383.871 39.28C384.431 39.28 384.891 39.096 385.251 38.728C385.611 38.36 385.791 37.812 385.791 37.084V34.132H386.739V41.368C386.739 41.688 386.647 41.94 386.463 42.124C386.287 42.308 386.027 42.4 385.683 42.4H382.083ZM388.627 41.5V40.9H388.975C389.263 40.9 389.407 40.756 389.407 40.468V40.084H389.239C389.007 40.084 388.811 40.012 388.651 39.868C388.499 39.724 388.423 39.544 388.423 39.328C388.423 39.096 388.499 38.908 388.651 38.764C388.811 38.62 389.007 38.548 389.239 38.548C389.471 38.548 389.663 38.624 389.815 38.776C389.967 38.928 390.043 39.12 390.043 39.352V40.468C390.043 41.156 389.699 41.5 389.011 41.5H388.627ZM396.506 40V32.248H396.326L394.694 35.236H393.638L395.642 31.6H397.478V40H396.506ZM402.158 40.168C401.582 40.168 401.066 40.056 400.61 39.832C400.162 39.6 399.806 39.272 399.542 38.848C399.286 38.424 399.158 37.92 399.158 37.336V34.408C399.158 33.776 399.282 33.24 399.53 32.8C399.778 32.36 400.126 32.024 400.574 31.792C401.03 31.552 401.57 31.432 402.194 31.432C402.81 31.432 403.334 31.544 403.766 31.768C404.206 31.984 404.538 32.284 404.762 32.668C404.994 33.044 405.11 33.48 405.11 33.976H404.126C404.126 33.48 403.966 33.08 403.646 32.776C403.326 32.464 402.842 32.308 402.194 32.308C401.538 32.308 401.03 32.488 400.67 32.848C400.31 33.2 400.13 33.688 400.13 34.312V35.476H400.298C400.442 35.236 400.682 35.016 401.018 34.816C401.354 34.608 401.822 34.504 402.422 34.504C402.926 34.504 403.386 34.616 403.802 34.84C404.218 35.064 404.55 35.38 404.798 35.788C405.046 36.196 405.17 36.68 405.17 37.24V37.384C405.17 37.952 405.038 38.444 404.773 38.86C404.518 39.276 404.162 39.6 403.706 39.832C403.25 40.056 402.734 40.168 402.158 40.168ZM402.158 39.292C402.766 39.292 403.258 39.12 403.634 38.776C404.01 38.432 404.198 37.964 404.198 37.372V37.276C404.198 36.876 404.11 36.532 403.934 36.244C403.766 35.956 403.53 35.732 403.226 35.572C402.922 35.404 402.566 35.32 402.158 35.32C401.758 35.32 401.406 35.404 401.102 35.572C400.798 35.732 400.558 35.956 400.382 36.244C400.214 36.532 400.13 36.876 400.13 37.276V37.372C400.13 37.964 400.318 38.432 400.694 38.776C401.07 39.12 401.558 39.292 402.158 39.292ZM409.827 40V31.6H411.747L413.979 39.364H414.135L416.367 31.6H418.287V40H417.315V32.26H417.147L414.927 40H413.187L410.967 32.26H410.799V40H409.827ZM422.046 40.168C421.638 40.168 421.266 40.096 420.93 39.952C420.594 39.808 420.33 39.6 420.138 39.328C419.946 39.056 419.85 38.724 419.85 38.332C419.85 37.932 419.946 37.604 420.138 37.348C420.33 37.084 420.594 36.888 420.93 36.76C421.266 36.624 421.642 36.556 422.058 36.556H424.038V36.124C424.038 35.708 423.914 35.38 423.666 35.14C423.426 34.9 423.066 34.78 422.586 34.78C422.114 34.78 421.746 34.896 421.482 35.128C421.218 35.352 421.038 35.656 420.942 36.04L420.054 35.752C420.15 35.424 420.302 35.128 420.51 34.864C420.718 34.592 420.994 34.376 421.338 34.216C421.69 34.048 422.11 33.964 422.598 33.964C423.35 33.964 423.934 34.16 424.35 34.552C424.766 34.936 424.974 35.48 424.974 36.184V38.836C424.974 39.076 425.086 39.196 425.31 39.196H425.85V40H425.022C424.758 40 424.546 39.928 424.386 39.784C424.226 39.632 424.146 39.432 424.146 39.184V39.124H424.002C423.914 39.276 423.794 39.436 423.642 39.604C423.498 39.764 423.298 39.896 423.042 40C422.786 40.112 422.454 40.168 422.046 40.168ZM422.154 39.352C422.714 39.352 423.166 39.188 423.51 38.86C423.862 38.524 424.038 38.056 424.038 37.456V37.324H422.094C421.718 37.324 421.406 37.408 421.158 37.576C420.918 37.736 420.798 37.98 420.798 38.308C420.798 38.636 420.922 38.892 421.17 39.076C421.426 39.26 421.754 39.352 422.154 39.352ZM427.704 42.4V41.56H431.064C431.296 41.56 431.412 41.44 431.412 41.2V39.064H431.244C431.164 39.232 431.04 39.4 430.872 39.568C430.712 39.728 430.5 39.86 430.236 39.964C429.972 40.06 429.64 40.108 429.24 40.108C428.816 40.108 428.424 40.016 428.064 39.832C427.712 39.648 427.432 39.376 427.224 39.016C427.024 38.656 426.924 38.216 426.924 37.696V34.132H427.872V37.624C427.872 38.2 428.016 38.62 428.304 38.884C428.6 39.148 428.996 39.28 429.492 39.28C430.052 39.28 430.512 39.096 430.872 38.728C431.232 38.36 431.412 37.812 431.412 37.084V34.132H432.36V41.368C432.36 41.688 432.268 41.94 432.084 42.124C431.908 42.308 431.648 42.4 431.304 42.4H427.704Z" fill="#9C9BB3"/>
<path d="M341.88 58V50.776H339.3V49.6H345.756V50.776H343.176V58H341.88ZM348.579 58.168C347.987 58.168 347.459 58.048 346.995 57.808C346.539 57.56 346.179 57.208 345.915 56.752C345.651 56.296 345.519 55.756 345.519 55.132V54.952C345.519 54.328 345.651 53.792 345.915 53.344C346.179 52.888 346.539 52.536 346.995 52.288C347.459 52.04 347.987 51.916 348.579 51.916C349.171 51.916 349.699 52.04 350.163 52.288C350.627 52.536 350.991 52.888 351.255 53.344C351.519 53.792 351.651 54.328 351.651 54.952V55.132C351.651 55.756 351.519 56.296 351.255 56.752C350.991 57.208 350.627 57.56 350.163 57.808C349.699 58.048 349.171 58.168 348.579 58.168ZM348.579 57.064C349.123 57.064 349.563 56.892 349.899 56.548C350.243 56.196 350.415 55.712 350.415 55.096V54.988C350.415 54.372 350.247 53.892 349.911 53.548C349.575 53.196 349.131 53.02 348.579 53.02C348.043 53.02 347.603 53.196 347.259 53.548C346.923 53.892 346.755 54.372 346.755 54.988V55.096C346.755 55.712 346.923 56.196 347.259 56.548C347.603 56.892 348.043 57.064 348.579 57.064ZM355.198 58C354.838 58 354.55 57.892 354.334 57.676C354.126 57.46 354.022 57.172 354.022 56.812V53.128H352.39V52.084H354.022V50.128H355.258V52.084H357.022V53.128H355.258V56.596C355.258 56.836 355.37 56.956 355.594 56.956H356.83V58H355.198ZM360.299 58.168C359.875 58.168 359.495 58.096 359.159 57.952C358.831 57.808 358.567 57.596 358.367 57.316C358.175 57.036 358.079 56.696 358.079 56.296C358.079 55.888 358.175 55.552 358.367 55.288C358.567 55.016 358.835 54.812 359.171 54.676C359.515 54.54 359.903 54.472 360.335 54.472H362.135V54.088C362.135 53.744 362.031 53.468 361.823 53.26C361.615 53.052 361.295 52.948 360.863 52.948C360.439 52.948 360.115 53.048 359.891 53.248C359.667 53.448 359.519 53.708 359.447 54.028L358.295 53.656C358.391 53.336 358.543 53.048 358.751 52.792C358.967 52.528 359.251 52.316 359.603 52.156C359.955 51.996 360.379 51.916 360.875 51.916C361.643 51.916 362.247 52.112 362.687 52.504C363.127 52.896 363.347 53.452 363.347 54.172V56.608C363.347 56.848 363.459 56.968 363.683 56.968H364.187V58H363.263C362.983 58 362.755 57.928 362.579 57.784C362.403 57.64 362.315 57.444 362.315 57.196V57.16H362.135C362.071 57.28 361.975 57.42 361.847 57.58C361.719 57.74 361.531 57.88 361.283 58C361.035 58.112 360.707 58.168 360.299 58.168ZM360.479 57.148C360.975 57.148 361.375 57.008 361.679 56.728C361.983 56.44 362.135 56.048 362.135 55.552V55.432H360.407C360.079 55.432 359.815 55.504 359.615 55.648C359.415 55.784 359.315 55.988 359.315 56.26C359.315 56.532 359.419 56.748 359.627 56.908C359.835 57.068 360.119 57.148 360.479 57.148ZM365.389 58V49.6H366.625V58H365.389ZM371.481 58V49.6H373.977L376.257 57.136H376.449V49.6H377.733V58H375.237L372.957 50.452H372.765V58H371.481ZM382.293 58.168C381.701 58.168 381.173 58.048 380.709 57.808C380.253 57.56 379.893 57.208 379.629 56.752C379.365 56.296 379.233 55.756 379.233 55.132V54.952C379.233 54.328 379.365 53.792 379.629 53.344C379.893 52.888 380.253 52.536 380.709 52.288C381.173 52.04 381.701 51.916 382.293 51.916C382.885 51.916 383.413 52.04 383.877 52.288C384.341 52.536 384.705 52.888 384.969 53.344C385.233 53.792 385.365 54.328 385.365 54.952V55.132C385.365 55.756 385.233 56.296 384.969 56.752C384.705 57.208 384.341 57.56 383.877 57.808C383.413 58.048 382.885 58.168 382.293 58.168ZM382.293 57.064C382.837 57.064 383.277 56.892 383.613 56.548C383.957 56.196 384.129 55.712 384.129 55.096V54.988C384.129 54.372 383.961 53.892 383.625 53.548C383.289 53.196 382.845 53.02 382.293 53.02C381.757 53.02 381.317 53.196 380.973 53.548C380.637 53.892 380.469 54.372 380.469 54.988V55.096C380.469 55.712 380.637 56.196 380.973 56.548C381.317 56.892 381.757 57.064 382.293 57.064ZM389.352 58.168C388.864 58.168 388.412 58.048 387.996 57.808C387.58 57.568 387.244 57.224 386.988 56.776C386.74 56.32 386.616 55.772 386.616 55.132V54.952C386.616 54.32 386.74 53.776 386.988 53.32C387.236 52.864 387.568 52.516 387.984 52.276C388.4 52.036 388.856 51.916 389.352 51.916C389.736 51.916 390.056 51.964 390.312 52.06C390.576 52.156 390.792 52.28 390.96 52.432C391.128 52.576 391.256 52.728 391.344 52.888H391.536V49.6H392.772V58H391.56V57.16H391.368C391.216 57.416 390.984 57.648 390.672 57.856C390.368 58.064 389.928 58.168 389.352 58.168ZM389.7 57.088C390.236 57.088 390.676 56.916 391.02 56.572C391.372 56.228 391.548 55.736 391.548 55.096V54.988C391.548 54.356 391.376 53.868 391.032 53.524C390.688 53.18 390.244 53.008 389.7 53.008C389.172 53.008 388.732 53.18 388.38 53.524C388.036 53.868 387.864 54.356 387.864 54.988V55.096C387.864 55.736 388.036 56.228 388.38 56.572C388.732 56.916 389.172 57.088 389.7 57.088ZM397.304 58.168C396.704 58.168 396.18 58.044 395.732 57.796C395.284 57.54 394.932 57.184 394.676 56.728C394.428 56.264 394.304 55.728 394.304 55.12V54.976C394.304 54.36 394.428 53.824 394.676 53.368C394.924 52.904 395.268 52.548 395.708 52.3C396.156 52.044 396.672 51.916 397.256 51.916C397.824 51.916 398.32 52.044 398.744 52.3C399.176 52.548 399.512 52.896 399.752 53.344C399.992 53.792 400.112 54.316 400.112 54.916V55.384H395.564C395.58 55.904 395.752 56.32 396.08 56.632C396.416 56.936 396.832 57.088 397.328 57.088C397.792 57.088 398.14 56.984 398.372 56.776C398.612 56.568 398.796 56.328 398.924 56.056L399.944 56.584C399.832 56.808 399.668 57.044 399.452 57.292C399.244 57.54 398.968 57.748 398.624 57.916C398.28 58.084 397.84 58.168 397.304 58.168ZM395.576 54.436H398.852C398.82 53.988 398.66 53.64 398.372 53.392C398.084 53.136 397.708 53.008 397.244 53.008C396.78 53.008 396.4 53.136 396.104 53.392C395.816 53.64 395.64 53.988 395.576 54.436ZM404.024 58.168C403.272 58.168 402.648 58 402.152 57.664C401.656 57.328 401.352 56.82 401.24 56.14L402.392 55.864C402.456 56.192 402.564 56.452 402.716 56.644C402.868 56.836 403.056 56.972 403.28 57.052C403.512 57.132 403.76 57.172 404.024 57.172C404.416 57.172 404.716 57.096 404.924 56.944C405.14 56.792 405.248 56.596 405.248 56.356C405.248 56.116 405.148 55.94 404.948 55.828C404.748 55.716 404.452 55.624 404.06 55.552L403.652 55.48C403.252 55.408 402.888 55.304 402.56 55.168C402.232 55.032 401.972 54.844 401.78 54.604C401.588 54.364 401.492 54.056 401.492 53.68C401.492 53.12 401.7 52.688 402.116 52.384C402.532 52.072 403.084 51.916 403.771 51.916C404.436 51.916 404.98 52.068 405.404 52.372C405.836 52.668 406.116 53.072 406.244 53.584L405.092 53.908C405.02 53.548 404.868 53.296 404.636 53.152C404.404 53 404.116 52.924 403.771 52.924C403.436 52.924 403.172 52.988 402.98 53.116C402.788 53.236 402.692 53.408 402.692 53.632C402.692 53.872 402.784 54.048 402.968 54.16C403.16 54.272 403.416 54.356 403.736 54.412L404.156 54.484C404.58 54.556 404.968 54.656 405.32 54.784C405.672 54.912 405.948 55.096 406.148 55.336C406.356 55.576 406.46 55.896 406.46 56.296C406.46 56.888 406.24 57.348 405.8 57.676C405.36 58.004 404.768 58.168 404.024 58.168ZM408.648 58.168C408.368 58.168 408.132 58.076 407.94 57.892C407.756 57.708 407.664 57.472 407.664 57.184C407.664 56.896 407.756 56.664 407.94 56.488C408.132 56.304 408.368 56.212 408.648 56.212C408.928 56.212 409.16 56.304 409.344 56.488C409.536 56.672 409.632 56.904 409.632 57.184C409.632 57.472 409.536 57.708 409.344 57.892C409.16 58.076 408.928 58.168 408.648 58.168ZM408.648 53.884C408.368 53.884 408.132 53.792 407.94 53.608C407.756 53.424 407.664 53.188 407.664 52.9C407.664 52.612 407.756 52.38 407.94 52.204C408.132 52.02 408.368 51.928 408.648 51.928C408.928 51.928 409.16 52.02 409.344 52.204C409.536 52.388 409.632 52.62 409.632 52.9C409.632 53.188 409.536 53.424 409.344 53.608C409.16 53.792 408.928 53.884 408.648 53.884ZM416.967 58.168C416.343 58.168 415.807 58.064 415.359 57.856C414.911 57.64 414.567 57.34 414.327 56.956C414.087 56.564 413.967 56.108 413.967 55.588H415.251C415.251 56.004 415.387 56.352 415.659 56.632C415.939 56.904 416.375 57.04 416.967 57.04C417.567 57.04 418.027 56.88 418.347 56.56C418.667 56.24 418.827 55.804 418.827 55.252V54.244H418.635C418.499 54.436 418.279 54.62 417.975 54.796C417.671 54.972 417.231 55.06 416.655 55.06C416.167 55.06 415.715 54.952 415.299 54.736C414.883 54.52 414.547 54.212 414.291 53.812C414.043 53.404 413.919 52.92 413.919 52.36V52.216C413.919 51.656 414.047 51.168 414.303 50.752C414.567 50.336 414.931 50.012 415.395 49.78C415.867 49.548 416.407 49.432 417.015 49.432C417.631 49.432 418.167 49.552 418.623 49.792C419.087 50.024 419.447 50.352 419.703 50.776C419.959 51.192 420.087 51.684 420.087 52.252V55.156C420.087 55.812 419.955 56.364 419.691 56.812C419.435 57.26 419.071 57.6 418.599 57.832C418.135 58.056 417.591 58.168 416.967 58.168ZM417.003 54.04C417.371 54.04 417.691 53.968 417.963 53.824C418.235 53.68 418.447 53.484 418.599 53.236C418.751 52.98 418.827 52.68 418.827 52.336V52.24C418.827 51.72 418.659 51.312 418.323 51.016C417.995 50.712 417.555 50.56 417.003 50.56C416.451 50.56 416.007 50.712 415.671 51.016C415.343 51.312 415.179 51.72 415.179 52.24V52.336C415.179 52.68 415.251 52.98 415.395 53.236C415.547 53.484 415.759 53.68 416.031 53.824C416.311 53.968 416.635 54.04 417.003 54.04ZM421.569 59.632V58.924H421.977C422.305 58.924 422.469 58.76 422.469 58.432V58.048H422.289C422.009 58.048 421.777 57.964 421.593 57.796C421.409 57.628 421.317 57.416 421.317 57.16C421.317 56.88 421.409 56.656 421.593 56.488C421.777 56.312 422.009 56.224 422.289 56.224C422.569 56.224 422.797 56.316 422.973 56.5C423.157 56.676 423.249 56.908 423.249 57.196V58.444C423.249 59.236 422.853 59.632 422.061 59.632H421.569ZM427.598 58.168C426.95 58.168 426.382 58.072 425.894 57.88C425.414 57.688 425.038 57.412 424.766 57.052C424.502 56.684 424.37 56.256 424.37 55.768V55.636C424.37 55.236 424.446 54.908 424.598 54.652C424.758 54.388 424.95 54.184 425.174 54.04C425.406 53.888 425.622 53.788 425.822 53.74V53.548C425.622 53.492 425.418 53.392 425.21 53.248C425.002 53.096 424.83 52.9 424.694 52.66C424.566 52.412 424.502 52.116 424.502 51.772V51.64C424.502 51.192 424.63 50.804 424.886 50.476C425.15 50.148 425.514 49.892 425.978 49.708C426.442 49.524 426.982 49.432 427.598 49.432C428.206 49.432 428.742 49.524 429.206 49.708C429.67 49.892 430.03 50.148 430.286 50.476C430.55 50.804 430.682 51.192 430.682 51.64V51.772C430.682 52.116 430.614 52.412 430.478 52.66C430.35 52.9 430.186 53.096 429.986 53.248C429.786 53.392 429.582 53.492 429.374 53.548V53.74C429.582 53.788 429.798 53.888 430.022 54.04C430.246 54.184 430.434 54.388 430.586 54.652C430.738 54.908 430.814 55.236 430.814 55.636V55.768C430.814 56.256 430.678 56.684 430.406 57.052C430.142 57.412 429.766 57.688 429.278 57.88C428.798 58.072 428.238 58.168 427.598 58.168ZM427.598 57.04C428.206 57.04 428.682 56.924 429.026 56.692C429.378 56.452 429.554 56.12 429.554 55.696V55.6C429.554 55.168 429.382 54.836 429.038 54.604C428.702 54.364 428.222 54.244 427.598 54.244C426.974 54.244 426.49 54.364 426.146 54.604C425.802 54.836 425.63 55.168 425.63 55.6V55.696C425.63 56.12 425.802 56.452 426.146 56.692C426.498 56.924 426.982 57.04 427.598 57.04ZM427.598 53.116C428.166 53.116 428.61 53.008 428.93 52.792C429.258 52.576 429.422 52.272 429.422 51.88V51.784C429.422 51.392 429.258 51.092 428.93 50.884C428.602 50.668 428.158 50.56 427.598 50.56C427.03 50.56 426.582 50.668 426.254 50.884C425.926 51.092 425.762 51.392 425.762 51.784V51.88C425.762 52.272 425.922 52.576 426.242 52.792C426.57 53.008 427.022 53.116 427.598 53.116ZM434.886 58.168C434.254 58.168 433.706 58.052 433.242 57.82C432.778 57.588 432.418 57.26 432.162 56.836C431.914 56.412 431.79 55.92 431.79 55.36V55.228H433.074V55.348C433.074 55.86 433.23 56.272 433.542 56.584C433.862 56.888 434.306 57.04 434.874 57.04C435.458 57.04 435.91 56.88 436.23 56.56C436.55 56.24 436.71 55.808 436.71 55.264V55.156C436.71 54.636 436.55 54.22 436.23 53.908C435.918 53.596 435.518 53.44 435.03 53.44C434.758 53.44 434.53 53.484 434.346 53.572C434.17 53.652 434.026 53.752 433.914 53.872C433.81 53.992 433.722 54.108 433.65 54.22H432.054V49.6H437.682V50.74H433.314V53.212H433.506C433.586 53.076 433.698 52.948 433.842 52.828C433.994 52.7 434.19 52.596 434.43 52.516C434.67 52.436 434.958 52.396 435.294 52.396C435.79 52.396 436.238 52.504 436.638 52.72C437.046 52.928 437.37 53.24 437.61 53.656C437.85 54.064 437.97 54.56 437.97 55.144V55.276C437.97 55.86 437.846 56.368 437.598 56.8C437.35 57.232 436.994 57.568 436.53 57.808C436.074 58.048 435.526 58.168 434.886 58.168ZM442.309 58.168C441.333 58.168 440.553 57.892 439.969 57.34C439.393 56.78 439.105 55.94 439.105 54.82V52.78C439.105 51.684 439.393 50.852 439.969 50.284C440.553 49.716 441.333 49.432 442.309 49.432C443.293 49.432 444.073 49.716 444.649 50.284C445.233 50.852 445.525 51.684 445.525 52.78V54.82C445.525 55.94 445.233 56.78 444.649 57.34C444.073 57.892 443.293 58.168 442.309 58.168ZM442.309 57.04C442.973 57.04 443.465 56.852 443.785 56.476C444.105 56.092 444.265 55.556 444.265 54.868V52.708C444.265 52.02 444.093 51.492 443.749 51.124C443.405 50.748 442.925 50.56 442.309 50.56C441.685 50.56 441.205 50.752 440.869 51.136C440.533 51.512 440.365 52.036 440.365 52.708V54.868C440.365 55.572 440.525 56.112 440.845 56.488C441.173 56.856 441.661 57.04 442.309 57.04Z" fill="white"/>
<defs>
<linearGradient id="paint0_linear_1382_188268" x1="344.5" y1="45" x2="344.5" y2="274.554" gradientUnits="userSpaceOnUse">
<stop stop-color="#CCCCFE"/>
<stop offset="0.986909" stop-color="#E1DFEB" stop-opacity="0"/>
</linearGradient>
</defs>
</svg>
